<?xml version="1.0" encoding="utf-8"?>
<!-- Generator: Adobe Illustrator 15.0.0, SVG Export Plug-In . SVG Version: 6.00 Build 0)  -->
<!DOCTYPE svg PUBLIC "-//W3C//DTD SVG 1.1//EN" "http://www.w3.org/Graphics/SVG/1.1/DTD/svg11.dtd">
<svg version="1.1" id="Layer_1" xmlns="http://www.w3.org/2000/svg" xmlns:xlink="http://www.w3.org/1999/xlink" x="0px" y="0px"
	 width="64px" height="64px" viewBox="0 0 64 64" enable-background="new 0 0 64 64" xml:space="preserve">
<g>
	<linearGradient id="SVGID_1_" gradientUnits="userSpaceOnUse" x1="32" y1="32.3608" x2="32" y2="63.0304">
		<stop  offset="0" style="stop-color:#F6F8F9"/>
		<stop  offset="1" style="stop-color:#E1E5E8"/>
	</linearGradient>
	<path fill="url(#SVGID_1_)" d="M10.668,63.749c-5.742,0-10.418-4.692-10.418-10.459V21.059L32,40.196l31.75-19.138V53.29
		c0,5.767-4.672,10.459-10.414,10.459H10.668z"/>
	<path display="none" fill="#B3BAC0" d="M63.5,21.503V53.29c0,5.628-4.559,10.208-10.164,10.208H10.668
		c-5.604,0-10.169-4.58-10.169-10.208V21.503l31.242,18.831L32,40.487l0.258-0.153L63.5,21.503 M64,20.615L32,39.902L0,20.615V53.29
		C0,59.185,4.8,64,10.668,64h42.668C59.203,64,64,59.185,64,53.29V20.615L64,20.615z"/>
</g>
<linearGradient id="SVGID_2_" gradientUnits="userSpaceOnUse" x1="32" y1="0.3716" x2="32" y2="40.6323">
	<stop  offset="0" style="stop-color:#F6F8F9"/>
	<stop  offset="1" style="stop-color:#E1E5E8"/>
</linearGradient>
<path fill="url(#SVGID_2_)" d="M0.25,22.481V10.456C0.25,4.69,4.926,0,10.668,0h42.668C59.078,0,63.75,4.69,63.75,10.456v12.026
	L32,41.62L0.25,22.481z"/>
<path fill="#B3BAC0" d="M63.75,22.183L32,41.329L0.25,22.183v0.592L32,41.914l31.75-19.14V22.183z"/>
</svg>
