<?xml version="1.0" encoding="UTF-8" standalone="no"?>
<svg width="30px" height="30px" viewBox="0 0 30 30" version="1.1" xmlns="http://www.w3.org/2000/svg" xmlns:xlink="http://www.w3.org/1999/xlink" xmlns:sketch="http://www.bohemiancoding.com/sketch/ns">
    <!-- Generator: Sketch 3.3.3 (12081) - http://www.bohemiancoding.com/sketch -->
    <title>Slice 1</title>
    <desc>Created with Sketch.</desc>
    <defs></defs>
    <g id="Page-1" stroke="none" stroke-width="1" fill="none" fill-rule="evenodd" sketch:type="MSPage">
        <path d="M15,30 C23.2842712,30 30,23.2842712 30,15 C30,6.71572875 23.2842712,0 15,0 C6.71572875,0 0,6.71572875 0,15 C0,23.2842712 6.71572875,30 15,30 Z" id="Oval-1-Copy-10" fill="#27757B" sketch:type="MSShapeGroup"></path>
        <path d="M7,21 L23,21 L23,8 L7,8 L7,21 Z M21.4761905,9.56 L21.4761905,9.76956 L15.0022857,15.24854 L8.52380952,9.7654 L8.52380952,9.56 L21.4761905,9.56 L21.4761905,9.56 Z M8.52380952,19.44 L8.52380952,11.57474 L15.0022857,17.06464 L21.4761905,11.5789 L21.4761905,19.44 L8.52380952,19.44 L8.52380952,19.44 Z" id="Imported-Layers" fill="#FFFFFF" sketch:type="MSShapeGroup"></path>
    </g>
</svg>