<?xml version="1.0" encoding="utf-8"?>
<!-- Generator: Adobe Illustrator 15.0.0, SVG Export Plug-In . SVG Version: 6.00 Build 0)  -->
<!DOCTYPE svg PUBLIC "-//W3C//DTD SVG 1.1//EN" "http://www.w3.org/Graphics/SVG/1.1/DTD/svg11.dtd">
<svg version="1.1" id="Layer_1" xmlns="http://www.w3.org/2000/svg" xmlns:xlink="http://www.w3.org/1999/xlink" x="0px" y="0px"
	 width="64px" height="64px" viewBox="0 0 64 64" enable-background="new 0 0 64 64" xml:space="preserve">
<g id="Facebook">
	<linearGradient id="Square_1_" gradientUnits="userSpaceOnUse" x1="31.9995" y1="0" x2="31.9995" y2="64">
		<stop  offset="0" style="stop-color:#6175AC"/>
		<stop  offset="1" style="stop-color:#32498B"/>
	</linearGradient>
	<path id="Square_3_" fill="url(#Square_1_)" d="M53.515,0H11.157C5.454,0,0,4.764,0,10.466v37.32v5.034
		C0,58.523,5.454,64,11.157,64h42.357C59.216,64,64,58.523,64,52.82v-5.034v-37.32C64,4.764,59.216,0,53.515,0z"/>
	<path id="Bottom" fill="#6E85B6" d="M11.157,64h42.357C59.216,64,64,58.523,64,52.82V48H0v4.82C0,58.523,5.454,64,11.157,64z"/>
	<linearGradient id="f_1_" gradientUnits="userSpaceOnUse" x1="38.2915" y1="29.9673" x2="38.2915" y2="63.3201">
		<stop  offset="0" style="stop-color:#FCFCFC"/>
		<stop  offset="1" style="stop-color:#D4D4D4"/>
	</linearGradient>
	<path id="f" fill="url(#f_1_)" d="M44.248,21.881h7.942v-9.834h-7.942c-6.569,0-11.914,5.79-11.914,12.906v4.964h-7.942v9.865
		h7.942v23.889h9.928V39.782h9.928v-9.865h-9.928V24.86C42.262,23.156,43.311,21.881,44.248,21.881z"/>
</g>
</svg>
