<?xml version="1.0" encoding="utf-8"?>
<!-- Generator: Adobe Illustrator 16.0.4, SVG Export Plug-In . SVG Version: 6.00 Build 0)  -->
<!DOCTYPE svg PUBLIC "-//W3C//DTD SVG 1.1//EN" "http://www.w3.org/Graphics/SVG/1.1/DTD/svg11.dtd">
<svg version="1.1" id="Layer_1" xmlns="http://www.w3.org/2000/svg" xmlns:xlink="http://www.w3.org/1999/xlink" x="0px" y="0px"
	 width="64px" height="64px" viewBox="0 0 64 64" enable-background="new 0 0 64 64" xml:space="preserve">
<g id="Facebook">
	
		<linearGradient id="Square_1_" gradientUnits="userSpaceOnUse" x1="279.5" y1="-306" x2="279.5" y2="-370.0005" gradientTransform="matrix(1 0 0 -1 -247.5 -306)">
		<stop  offset="0" style="stop-color:#6175AC"/>
		<stop  offset="1" style="stop-color:#32498B"/>
	</linearGradient>
	<path id="Square_3_" fill="url(#Square_1_)" d="M53.516,0H11.157C5.454,0,0,4.764,0,10.466v37.32v5.034
		C0,58.523,5.454,64,11.157,64h42.356C59.216,64,64,58.523,64,52.82v-5.034v-37.32C64,4.764,59.216,0,53.516,0z"/>
	<path id="Bottom" fill="#6E85B6" d="M11.157,64h42.356C59.216,64,64,58.523,64,52.82V48H0v4.82C0,58.523,5.454,64,11.157,64z"/>
	
		<linearGradient id="f_2_" gradientUnits="userSpaceOnUse" x1="285.79" y1="-335.9683" x2="285.79" y2="-369.3217" gradientTransform="matrix(1 0 0 -1 -247.5 -306)">
		<stop  offset="0" style="stop-color:#FCFCFC"/>
		<stop  offset="1" style="stop-color:#D4D4D4"/>
	</linearGradient>
	<path id="f" fill="url(#f_2_)" d="M44.248,21.881h7.941v-9.834h-7.941c-6.568,0-11.914,5.79-11.914,12.906v4.964h-7.942v9.865
		h7.942v23.889h9.928V39.782h9.928v-9.865h-9.928V24.86C42.262,23.156,43.311,21.881,44.248,21.881z"/>
</g>
<g id="Square_6_">
	<g>
		<path fill="#3D5A98" d="M10.534,63.845c-5.792,0-10.503-4.704-10.503-10.487V10.412c0-5.782,4.711-10.487,10.503-10.487h43.015
			c5.789,0,10.501,4.705,10.501,10.487v42.945c0,5.783-4.712,10.487-10.501,10.487H10.534z"/>
	</g>
</g>
<path id="f_1_" fill="#FFFFFF" d="M44.439,64V39.628h8.181l1.225-9.499h-9.405v-6.063c0-2.75,0.764-4.625,4.708-4.625l5.028-0.002
	v-8.495c-0.869-0.115-3.855-0.375-7.329-0.375c-7.251,0-12.216,4.427-12.216,12.556v7.004H26.43v9.499h8.201V64H44.439z"/>
</svg>
