<svg xmlns="http://www.w3.org/2000/svg" viewBox="0 0 1024 1024"><path d="M512 256c-145 0-262.5 117.5-262.5 262.5 0 116.1 75.1 214.2 179.5 249 13.1 2.3 18-5.6 18-12.5 0-6.2-.3-26.9-.3-48.9-65.9 12.1-83-16.1-88.3-30.8-3-7.5-15.7-30.8-26.9-37.1-9.2-4.9-22.3-17.1-.3-17.4 20.7-.3 35.4 19 40.4 26.9 23.6 39.7 61.4 28.5 76.4 21.7 2.3-17.1 9.2-28.5 16.7-35.1-58.4-6.6-119.4-29.2-119.4-129.6 0-28.5 10.2-52.2 26.9-70.5-2.6-6.6-11.8-33.5 2.6-69.6 0 0 22-6.9 72.2 26.9 21-5.9 43.3-8.9 65.6-8.9 22.3 0 44.6 3 65.6 8.9 50.2-34.1 72.2-26.9 72.2-26.9 14.4 36.1 5.2 63 2.6 69.6 16.7 18.4 26.9 41.7 26.9 70.5 0 100.7-61.4 123-119.8 129.6 9.5 8.2 17.7 24 17.7 48.6 0 35.1-.3 63.3-.3 72.2 0 6.9 4.9 15.1 18 12.5 106.8-36.1 178.8-136.3 178.8-249C774.5 373.5 657 256 512 256z"/></svg>