<svg width="66" height="66" viewBox="0 0 66 66" xmlns="http://www.w3.org/2000/svg"><title>Slice 1</title><g transform="translate(1 1)" fill="none" fill-rule="evenodd"><circle fill="#CF3E2B" cx="32" cy="32" r="32"/><g fill="#FFF"><path d="M46.364 29.166v-4.744h-2.417v4.744H39.11v3.163h4.837v4.743h2.417V32.33H51.2v-3.164h-4.836M37.364 15.724h-9.04c-1.2 0-2.485-.012-3.856.263-1.385.318-2.72.925-4.005 1.967-1.87 1.78-2.806 3.726-2.806 5.913 0 1.81.66 3.375 1.98 4.736 1.262 1.463 3.096 2.2 5.502 2.227.453 0 .938-.033 1.45-.09l-.275.76c-.113.263-.17.59-.17.982 0 .656.15 1.215.446 1.68.256.482.547.933.872 1.355-1.054.03-2.38.158-3.975.39-1.61.275-3.148.823-4.613 1.647-1.303.766-2.204 1.655-2.7 2.667-.514 1.012-.77 1.93-.77 2.754 0 1.69.788 3.143 2.364 4.357 1.562 1.302 3.925 1.966 7.09 1.996 3.783-.058 6.677-.95 8.682-2.67 1.934-1.667 2.9-3.58 2.9-5.736-.026-1.52-.38-2.75-1.055-3.692-.72-.927-1.555-1.773-2.508-2.54l-1.533-1.238c-.22-.218-.45-.47-.684-.76-.276-.305-.414-.69-.414-1.152 0-.478.135-.897.404-1.26.23-.348.478-.658.747-.933.47-.406.916-.804 1.334-1.195.377-.39.734-.818 1.07-1.282.688-.955 1.045-2.23 1.072-3.822 0-.868-.1-1.63-.298-2.28-.242-.652-.518-1.217-.83-1.695-.327-.505-.66-.794-1-1.142-.356-.333-.676-.623-.96-.623h2.788l2.792-1.58zm-4.956 23.983c.748.84 1.123 1.825 1.123 2.954 0 1.39-.546 2.528-1.64 3.412-1.122.897-2.75 1.36-4.88 1.39-2.373-.03-4.244-.55-5.61-1.564-1.44-1.015-2.16-2.303-2.16-3.867 0-.796.165-1.476.497-2.04.287-.537.64-.986 1.058-1.348.43-.347.856-.616 1.273-.803.418-.175.742-.305.972-.392.98-.29 1.935-.5 2.87-.63.95-.088 1.54-.116 1.77-.088.39 0 .728.015 1.015.045 1.684 1.157 2.922 2.135 3.713 2.932zm-1.467-13.1c-.108.594-.354 1.174-.737 1.74-.793.798-1.785 1.22-2.974 1.262-.943 0-1.78-.284-2.512-.85-.733-.565-1.33-1.255-1.794-2.067-.957-1.74-1.435-3.417-1.435-5.028-.03-1.218.297-2.32.982-3.307.812-.943 1.83-1.43 3.055-1.46.926.03 1.745.3 2.457.807.698.537 1.26 1.233 1.688 2.09.912 1.783 1.367 3.554 1.367 5.31 0 .405-.033.907-.1 1.5z"/></g></g></svg>