<?xml version="1.0" encoding="utf-8"?>
<!-- Generator: Adobe Illustrator 16.0.4, SVG Export Plug-In . SVG Version: 6.00 Build 0)  -->
<!DOCTYPE svg PUBLIC "-//W3C//DTD SVG 1.1//EN" "http://www.w3.org/Graphics/SVG/1.1/DTD/svg11.dtd">
<svg version="1.1" id="Layer_1" xmlns="http://www.w3.org/2000/svg" xmlns:xlink="http://www.w3.org/1999/xlink" x="0px" y="0px"
	 width="64.252px" height="64px" viewBox="0 0 64.252 64" enable-background="new 0 0 64.252 64" xml:space="preserve">
<g id="Square_3_">
	<g>
		<path fill="#CF3E2B" d="M10.751,63.864c-5.79,0-10.5-4.699-10.5-10.478V10.478C0.251,4.701,4.961,0,10.751,0h43.003
			c5.787,0,10.498,4.701,10.498,10.478v42.909c0,5.778-4.711,10.478-10.498,10.478H10.751z"/>
	</g>
</g>
<g>
	<g>
		<path fill-rule="evenodd" clip-rule="evenodd" fill="#FFFFFF" d="M37.499,11.284H26.283c-1.488,0-3.083,0.174-4.785,0.521
			c-1.719,0.403-3.375,1.264-4.97,2.582c-2.321,2.252-3.482,4.76-3.482,7.525c0,2.289,0.819,4.293,2.458,6.014
			c1.565,1.85,3.841,2.792,6.826,2.829c0.564,0,1.165-0.037,1.802-0.11c-0.106,0.293-0.22,0.616-0.343,0.965
			c-0.141,0.332-0.211,0.747-0.211,1.243c0,0.829,0.184,1.538,0.554,2.127c0.316,0.608,0.677,1.179,1.081,1.712
			c-1.309,0.037-2.953,0.201-4.933,0.494c-1.999,0.348-3.907,1.041-5.724,2.084c-1.617,0.968-2.734,2.092-3.352,3.371
			c-0.636,1.279-0.954,2.44-0.954,3.482c0,2.139,0.978,3.975,2.933,5.511c1.938,1.646,4.87,2.485,8.799,2.522
			c4.692-0.073,8.283-1.199,10.772-3.379c2.399-2.105,3.6-4.523,3.6-7.251c-0.035-1.923-0.473-3.479-1.312-4.67
			c-0.891-1.172-1.928-2.243-3.11-3.214L30.03,34.08c-0.274-0.275-0.558-0.596-0.849-0.962c-0.343-0.385-0.514-0.87-0.514-1.456
			c0-0.604,0.167-1.135,0.501-1.593c0.284-0.439,0.593-0.833,0.927-1.181c0.585-0.513,1.137-1.017,1.655-1.511
			c0.467-0.495,0.91-1.035,1.328-1.621c0.853-1.208,1.296-2.819,1.329-4.834c0-1.099-0.124-2.061-0.37-2.885
			c-0.3-0.823-0.644-1.538-1.03-2.142c-0.405-0.641-0.82-1.181-1.242-1.621c-0.44-0.421-0.837-0.742-1.189-0.961h3.458
			L37.499,11.284z M31.35,41.993c0.928,1.062,1.393,2.308,1.393,3.736c0,1.758-0.679,3.196-2.036,4.313
			c-1.393,1.135-3.411,1.722-6.054,1.758c-2.946-0.036-5.268-0.695-6.964-1.978c-1.786-1.282-2.679-2.913-2.679-4.89
			c0-1.008,0.206-1.869,0.616-2.584c0.357-0.678,0.795-1.245,1.312-1.703c0.536-0.438,1.062-0.778,1.581-1.016
			c0.518-0.221,0.919-0.385,1.206-0.495c1.214-0.366,2.401-0.632,3.562-0.796c1.179-0.11,1.911-0.146,2.197-0.11
			c0.482,0,0.901,0.019,1.258,0.056C28.832,39.75,30.368,40.985,31.35,41.993z M29.53,25.424c-0.136,0.752-0.441,1.486-0.916,2.202
			c-0.984,1.01-2.215,1.542-3.691,1.596c-1.168,0-2.208-0.357-3.116-1.073c-0.909-0.715-1.651-1.587-2.226-2.614
			c-1.187-2.202-1.781-4.321-1.781-6.358c-0.037-1.541,0.37-2.935,1.219-4.183c1.007-1.193,2.271-1.808,3.791-1.845
			c1.149,0.037,2.166,0.377,3.049,1.019c0.867,0.679,1.564,1.56,2.095,2.642c1.131,2.257,1.696,4.496,1.696,6.716
			C29.651,24.04,29.611,24.673,29.53,25.424z M54.996,28.836v-0.03h-5.898v-6.013h-3.454v6.013h-5.936v3.356h0.037v0.127h5.898
			v5.898h3.454v-5.898h6.042v-3.453H54.996z"/>
	</g>
</g>
</svg>
