<?xml version="1.0" encoding="UTF-8" standalone="no"?>
<svg width="30px" height="30px" viewBox="0 0 30 30" version="1.1" xmlns="http://www.w3.org/2000/svg" xmlns:xlink="http://www.w3.org/1999/xlink" xmlns:sketch="http://www.bohemiancoding.com/sketch/ns">
    <!-- Generator: Sketch 3.3.3 (12081) - http://www.bohemiancoding.com/sketch -->
    <title>Slice 1</title>
    <desc>Created with Sketch.</desc>
    <defs></defs>
    <g id="Page-1" stroke="none" stroke-width="1" fill="none" fill-rule="evenodd" sketch:type="MSPage">
        <circle id="Oval-1-Copy-8" fill="#CF3E2B" sketch:type="MSShapeGroup" cx="15" cy="15" r="15"></circle>
        <g id="Imported-Layers" sketch:type="MSLayerGroup" transform="translate(7.000000, 7.000000)" fill="#FFFFFF">
            <path d="M14.7333333,6.67151163 L14.7333333,4.44767442 L13.6,4.44767442 L13.6,6.67151163 L11.3333333,6.67151163 L11.3333333,8.15406977 L13.6,8.15406977 L13.6,10.377907 L14.7333333,10.377907 L14.7333333,8.15406977 L17,8.15406977 L17,6.67151163 L14.7333333,6.67151163" id="Fill-1" sketch:type="MSShapeGroup"></path>
            <path d="M10.5143111,0.370639535 L6.27715556,0.370639535 C5.71464444,0.370639535 5.11208889,0.365079942 4.46948889,0.49369186 C3.82008889,0.643059593 3.19448889,0.927340116 2.59193333,1.41584302 C1.71511111,2.25052326 1.27651111,3.16266715 1.27651111,4.18748547 C1.27651111,5.03550872 1.58628889,5.76974564 2.20508889,6.40761628 C2.79631111,7.09329942 3.65613333,7.43836483 4.7838,7.45170785 C4.99686667,7.45170785 5.22391111,7.43614099 5.46455556,7.4090843 C5.42451111,7.51805233 5.38182222,7.63628634 5.33535556,7.76601017 C5.28208889,7.88869186 5.25564444,8.04213663 5.25564444,8.22597384 C5.25564444,8.53323401 5.32515556,8.7956468 5.46455556,9.01395349 C5.58393333,9.23930233 5.72031111,9.45056686 5.87293333,9.64848837 C5.3788,9.66220203 4.75773333,9.72261628 4.00973333,9.8315843 C3.25455556,9.96019622 2.53375556,10.2174201 1.84733333,10.6036265 C1.23646667,10.9624055 0.814111111,11.3790044 0.581022222,11.853423 C0.340755556,12.3274709 0.220622222,12.7577834 0.220622222,13.1439898 C0.220622222,13.9367878 0.590088889,14.617282 1.32864444,15.1865843 C2.06077778,15.7962863 3.16842222,16.1076235 4.65271111,16.1213372 C6.42524444,16.0942805 7.78184444,15.6765698 8.72175556,14.8693169 C9.62842222,14.08875 10.0817556,13.1925436 10.0817556,12.181439 C10.0689111,11.4686991 9.90344444,10.891984 9.58648889,10.4505523 C9.24951111,10.0161628 8.85775556,9.61957849 8.41122222,9.25931686 L7.69268889,8.67963663 C7.5888,8.57734012 7.48188889,8.4591061 7.37195556,8.3230814 C7.24237778,8.18038517 7.17777778,8.000625 7.17777778,7.78343023 C7.17777778,7.55956395 7.24086667,7.36275436 7.36704444,7.19300145 C7.47433333,7.02992006 7.59106667,6.88425872 7.71724444,6.75527616 C7.93824444,6.56513808 8.14677778,6.3787064 8.34246667,6.19523983 C8.51888889,6.0121439 8.68624444,5.81199855 8.84415556,5.59443314 C9.1664,5.14670058 9.33375556,4.54960029 9.34622222,3.80276163 C9.34622222,3.39579942 9.29937778,3.03924419 9.20644444,2.73383721 C9.09311111,2.42843023 8.96353333,2.1637936 8.81733333,1.93955669 C8.66433333,1.70234738 8.50755556,1.56669331 8.34813333,1.40361192 C8.18191111,1.24757267 8.03193333,1.1119186 7.89895556,1.1119186 L9.20568889,1.1119186 L10.5143111,0.370639535 L10.5143111,0.370639535 Z M8.19135556,11.6125073 C8.54193333,12.0061265 8.7176,12.4679433 8.7176,12.9972166 C8.7176,13.6488009 8.46146667,14.1817805 7.94844444,14.5961555 C7.42257778,15.0168314 6.65984444,15.2343968 5.66137778,15.2477398 C4.54844444,15.2343968 3.67162222,14.9897747 3.03091111,14.5146148 C2.3562,14.0390843 2.01884444,13.4353125 2.01884444,12.7021875 C2.01884444,12.3285828 2.09628889,12.0094622 2.25155556,11.7448256 C2.38642222,11.493532 2.55188889,11.2830087 2.74757778,11.1136265 C2.94968889,10.9509157 3.14877778,10.8248983 3.34446667,10.7370567 C3.54015556,10.655516 3.69202222,10.5943605 3.80006667,10.5535901 C4.25868889,10.4175654 4.70711111,10.3193459 5.14571111,10.2581904 C5.59073333,10.2174201 5.86726667,10.204077 5.97531111,10.2174201 C6.1574,10.2174201 6.31606667,10.2240916 6.45093333,10.2381759 C7.24011111,10.7807922 7.82037778,11.2389026 8.19135556,11.6125073 L8.19135556,11.6125073 Z M7.5038,5.47138081 C7.45242222,5.75047238 7.3372,6.0225218 7.15775556,6.28752907 C6.78602222,6.661875 6.32097778,6.85905523 5.76337778,6.87906977 C5.32213333,6.87906977 4.92962222,6.74675145 4.5866,6.48137355 C4.24282222,6.21636628 3.96288889,5.8931686 3.74566667,5.5125218 C3.29724444,4.69637355 3.07284444,3.91061773 3.07284444,3.155625 C3.05924444,2.58446948 3.21262222,2.06779797 3.53373333,1.60523983 C3.91415556,1.16306686 4.39166667,0.935123547 4.96588889,0.921409884 C5.39995556,0.935123547 5.78377778,1.06114099 6.11735556,1.29909157 C6.44488889,1.55075581 6.70857778,1.87728924 6.9088,2.27832122 C7.33606667,3.11485465 7.54951111,3.94471657 7.54951111,4.76753634 C7.54951111,4.95804506 7.5344,5.19303052 7.5038,5.47138081 L7.5038,5.47138081 Z" id="Fill-2" sketch:type="MSShapeGroup"></path>
        </g>
    </g>
</svg>