<?xml version="1.0" encoding="utf-8"?>
<!-- Generator: Adobe Illustrator 19.2.1, SVG Export Plug-In . SVG Version: 6.00 Build 0)  -->
<svg version="1.1" id="icon" xmlns="http://www.w3.org/2000/svg" xmlns:xlink="http://www.w3.org/1999/xlink" x="0px" y="0px"
	 viewBox="0 0 1024 1024" style="enable-background:new 0 0 1024 1024;" xml:space="preserve">
<path id="googleplus" d="M418.6,479.9v64.2c0,0,62.5-0.1,87.9-0.1c-13.8,41.7-35.2,64.3-87.9,64.3c-53.4,0-95-43.1-95-96.4
	c0-53.2,41.6-96.4,95-96.4c28.2,0,46.4,9.9,63.1,23.7C495.1,426,494,424.1,528,392c-28.9-26.2-67.3-42.2-109.4-42.2
	C328.8,349.8,256,422.4,256,512s72.8,162.2,162.6,162.2c134.2,0,167.1-116.6,156.2-194.3L418.6,479.9L418.6,479.9z M711.6,483.1
	v-56.2h-40.3v56.2h-58v40.2h58v57.8h40.3v-57.8H768v-40.2L711.6,483.1L711.6,483.1z"/>
</svg>
