<?xml version="1.0" encoding="utf-8"?>
<!-- Generator: Adobe Illustrator 15.0.0, SVG Export Plug-In . SVG Version: 6.00 Build 0)  -->
<!DOCTYPE svg PUBLIC "-//W3C//DTD SVG 1.1//EN" "http://www.w3.org/Graphics/SVG/1.1/DTD/svg11.dtd">
<svg version="1.1" id="Layer_1" xmlns="http://www.w3.org/2000/svg" xmlns:xlink="http://www.w3.org/1999/xlink" x="0px" y="0px"
	 width="64.252px" height="64px" viewBox="0 0 64.252 64" enable-background="new 0 0 64.252 64" xml:space="preserve">
<g>
	<linearGradient id="SVGID_1_" gradientUnits="userSpaceOnUse" x1="14.4829" y1="63.5435" x2="14.4829" y2="0.7837">
		<stop  offset="0" style="stop-color:#C31718"/>
		<stop  offset="0.6074" style="stop-color:#D9563F"/>
	</linearGradient>
	<path fill="url(#SVGID_1_)" d="M10.492,64h18.17c0.018,0,0.037-0.43,0.037-0.685c0-2.45-0.801-4.553-2.398-6.373
		c-1.691-1.729-4.334-3.832-7.931-6.345c-0.615-0.062-1.336-0.086-2.167-0.086c-0.492-0.063-1.752,0.004-3.781,0.192
		c-1.999,0.283-4.042,0.741-6.132,1.369c-0.492,0.189-1.184,0.472-2.075,0.849c-0.893,0.408-1.799,0.99-2.721,1.743
		c-0.443,0.39-0.852,0.763-1.227,1.247C1.337,60.573,5.51,64,10.492,64z"/>
	<linearGradient id="SVGID_2_" gradientUnits="userSpaceOnUse" x1="7.9937" y1="63.6665" x2="7.9936" y2="0.351">
		<stop  offset="0" style="stop-color:#C31718"/>
		<stop  offset="0.6074" style="stop-color:#D9563F"/>
	</linearGradient>
	<path fill="url(#SVGID_2_)" d="M15.736,47.887c-0.696-0.916-1.316-1.895-1.86-2.936c-0.636-1.01-0.953-2.226-0.953-3.646
		c0-0.852,0.121-1.563,0.362-2.131c0.212-0.6,0.409-1.151,0.591-1.656c-1.097,0.125-2,0.188-2.972,0.188
		c-4.556-0.056-8.651-1.338-10.651-3.835v17.114c2-1.062,4.621-1.818,7.123-2.251C10.783,48.232,13.484,47.95,15.736,47.887z"/>
	<linearGradient id="SVGID_3_" gradientUnits="userSpaceOnUse" x1="13.1743" y1="63.6665" x2="13.1743" y2="0.3509">
		<stop  offset="0" style="stop-color:#C31718"/>
		<stop  offset="0.6074" style="stop-color:#D9563F"/>
	</linearGradient>
	<path fill="url(#SVGID_3_)" d="M23.377,25.308c0-3.806-0.973-7.645-2.92-11.515c-0.914-1.855-2.116-3.366-3.606-4.53
		c-1.522-1.101-3.271-1.683-5.249-1.746C8.985,7.581,6.81,8.634,5.076,10.68c-1.463,2.14-2.163,4.53-2.1,7.171
		c0,3.493,1.022,7.127,3.066,10.902c0.99,1.761,2.267,3.256,3.831,4.483c1.565,1.228,3.353,1.84,5.364,1.84
		c2.542-0.095,4.66-1.006,6.355-2.737c0.816-1.227,1.342-2.485,1.576-3.774C23.307,27.275,23.377,26.19,23.377,25.308z"/>
	<linearGradient id="SVGID_4_" gradientUnits="userSpaceOnUse" x1="32.1265" y1="63.5396" x2="32.1265" y2="0.2241">
		<stop  offset="0" style="stop-color:#C31718"/>
		<stop  offset="0.6074" style="stop-color:#D9563F"/>
	</linearGradient>
	<path fill="url(#SVGID_4_)" d="M53.494,0H10.492C4.758,0,0.09,4.686,0,10.398c0.26-0.274,0.506-0.519,0.786-0.789
		C3.529,7.349,6.382,5.73,9.34,5.038C12.27,4.442,15.015,4,17.578,4h19.309l-5.963,4h-5.955c0.607,0,1.288,0.827,2.047,1.549
		c0.727,0.753,1.439,1.629,2.138,2.728c0.667,1.037,1.257,2.235,1.773,3.649c0.423,1.412,0.636,3.048,0.636,4.932
		c-0.057,3.454-0.819,6.211-2.287,8.282c-0.719,1.006-1.48,1.929-2.286,2.775c-0.893,0.848-1.842,1.71-2.849,2.59
		c-0.574,0.596-1.107,1.271-1.596,2.024c-0.575,0.785-0.863,1.695-0.863,2.731c0,1.006,0.296,1.836,0.885,2.496
		c0.502,0.628,0.989,1.177,1.461,1.648l3.275,2.685c2.035,1.664,3.821,3.5,5.355,5.51c1.445,2.041,2.198,4.646,2.258,7.942
		c0,1.569-0.254,3.459-0.719,4.459h19.297c5.787,0,10.758-4.583,10.758-10.374V10.627C64.252,4.838,59.281,0,53.494,0z"/>
	<path fill="#FFFFFF" d="M32.658,51.599c-1.534-2.01-3.32-3.846-5.355-5.51l-3.275-2.685c-0.472-0.471-0.959-1.02-1.461-1.648
		c-0.589-0.66-0.885-1.491-0.885-2.497c0-1.036,0.288-1.946,0.863-2.731c0.488-0.753,1.021-1.428,1.596-2.024
		c1.007-0.879,1.956-1.744,2.849-2.591c0.806-0.847,1.567-1.773,2.286-2.779c1.468-2.071,2.23-4.834,2.287-8.289
		c0-1.883-0.213-3.532-0.636-4.944c-0.517-1.414-1.106-2.637-1.773-3.674c-0.698-1.099-1.411-1.925-2.138-2.678
		C26.257,8.827,25.576,8,24.969,8h5.955l5.963-4H17.578C15.015,4,12.27,4.458,9.34,5.054C6.382,5.746,3.529,7.301,0.786,9.561
		C0.506,9.831,0.39,10.147,0.13,10.421c-0.001,0.056,0.122,0.15,0.122,0.206V33.87c2,2.498,6.096,3.779,10.651,3.835
		c0.972,0,1.94-0.063,3.037-0.188c-0.182,0.504-0.411,1.056-0.623,1.656c-0.241,0.568-0.379,1.279-0.379,2.131
		c0,1.421,0.31,2.636,0.945,3.646c0.544,1.042,1.16,2.021,1.856,2.936c-2.252,0.062-4.954,0.345-8.363,0.846
		c-2.501,0.433-5.125,1.189-7.125,2.251v2.643c0,0.809-0.029,1.592,0.145,2.349c0.374-0.483,0.718-0.92,1.161-1.31
		c0.922-0.753,1.796-1.335,2.689-1.743c0.891-0.377,1.566-0.659,2.058-0.848c2.09-0.628,4.126-1.083,6.125-1.367
		c2.029-0.188,3.285-0.251,3.777-0.188c0.831,0,1.551,0.031,2.166,0.094c3.597,2.513,6.24,4.632,7.93,6.361
		c1.599,1.82,2.398,3.891,2.398,6.341C28.7,63.57,28.68,64,28.662,64h5.535c0.465-1,0.719-2.89,0.719-4.459
		C34.856,56.244,34.104,53.64,32.658,51.599z M15.237,35.077c-2.011,0-3.799-0.612-5.364-1.84c-1.564-1.227-2.841-2.722-3.831-4.483
		c-2.044-3.775-3.066-7.41-3.066-10.902c-0.062-2.641,0.637-5.031,2.1-7.171c1.734-2.046,3.91-3.1,6.526-3.162
		c1.978,0.062,3.727,0.645,5.249,1.746c1.49,1.164,2.692,2.674,3.606,4.53c1.947,3.87,2.92,7.709,2.92,11.515
		c0,0.882-0.07,1.967-0.209,3.257c-0.234,1.289-0.76,2.548-1.576,3.774C19.896,34.071,17.779,34.982,15.237,35.077z"/>
	<polygon id="PLUS_2_" fill="#FFFFFF" points="63.252,15 53.252,15 53.252,5 48.252,5 48.252,15 38.252,15 38.252,20 48.252,20 
		48.252,30 53.252,30 53.252,20 63.252,20 	"/>
</g>
</svg>
