<svg width="66" height="67" viewBox="0 0 66 67" xmlns="http://www.w3.org/2000/svg"><title>Slice 1</title><g fill="none" fill-rule="evenodd"><path d="M65 33.556C65 15.92 50.673 1.62 33 1.62c-17.673 0-32 14.3-32 31.936 0 17.638 14.327 31.936 32 31.936 17.673 0 32-14.298 32-31.936z" fill="#0077B5"/><g fill="#FFF"><path d="M27.987 33.628c0-2.966-.097-5.446-.196-7.586h6.434l.34 3.307h.147c.976-1.557 3.363-3.844 7.358-3.844 4.872 0 8.526 3.26 8.526 10.262V49.82h-7.406V36.642c0-3.063-1.07-5.155-3.75-5.155-2.047 0-3.267 1.41-3.802 2.773-.195.487-.243 1.166-.243 1.848V49.82h-7.406V33.628M24.93 19.43c0 2.04-1.507 3.695-3.992 3.695-2.34 0-3.85-1.654-3.85-3.696 0-2.092 1.56-3.696 3.947-3.696 2.388 0 3.848 1.604 3.896 3.695zm-7.647 6.612h7.405V49.82h-7.405V26.042z"/></g></g></svg>