<?xml version="1.0" encoding="utf-8"?>
<!-- Generator: Adobe Illustrator 16.0.4, SVG Export Plug-In . SVG Version: 6.00 Build 0)  -->
<!DOCTYPE svg PUBLIC "-//W3C//DTD SVG 1.1//EN" "http://www.w3.org/Graphics/SVG/1.1/DTD/svg11.dtd">
<svg version="1.1" id="Layer_1" xmlns="http://www.w3.org/2000/svg" xmlns:xlink="http://www.w3.org/1999/xlink" x="0px" y="0px"
	 width="64px" height="64px" viewBox="0 0 64 64" enable-background="new 0 0 64 64" xml:space="preserve">
<g id="Layer_2">
	<path fill="#EAEAEA" d="M64,57c0,5.766-5.172,7-10.914,7H10.418C4.676,64,0,59.307,0,53.541V21.559V10.834v-0.375
		C0,4.692,4.672,0,10.415,0h42.667C58.824,0,64,4.733,64,10.5V57z"/>
	<path display="none" fill="#EAEAEA" d="M93.503,21.503V53.29c0,5.628-4.56,10.208-10.164,10.208H40.67
		c-5.604,0-10.169-4.58-10.169-10.208V21.503l31.244,18.831l0.259,0.152l0.258-0.152L93.503,21.503 M94.003,20.615l-32,19.287
		L30.001,20.615V53.29c0,5.896,4.8,10.71,10.668,10.71h42.669c5.867,0,10.664-4.814,10.664-10.71L94.003,20.615L94.003,20.615z"/>
	<g>
		<path display="none" fill="#EAEAEA" d="M0.836,21.503V53.29c0,5.628-4.559,10.208-10.164,10.208h-42.669
			c-5.604,0-10.169-4.58-10.169-10.208V21.503l31.244,18.831l0.259,0.152l0.258-0.152L0.836,21.503 M1.336,20.615l-32,19.287
			l-32.001-19.287V53.29c0,5.896,4.8,10.71,10.668,10.71h42.669c5.867,0,10.664-4.814,10.664-10.71V20.615L1.336,20.615z"/>
	</g>
	<path display="none" fill="#EAEAEA" d="M30.501,42.496V10.71c0-5.628,4.56-10.208,10.165-10.208h42.669
		c5.604,0,10.169,4.58,10.169,10.208v31.786l-31.242-18.83l-0.259-0.152l-0.258,0.152L30.501,42.496 M30.001,43.385l32.001-19.287
		l32,19.287V10.71c0-5.896-4.8-10.71-10.668-10.71H40.666c-5.867,0-10.665,4.814-10.665,10.71V43.385L30.001,43.385z"/>
</g>
<g id="Layer_1_2_">
	<g id="link">
		<g>
			<path fill="#777777" d="M41.35,31.581H22.42c-1.028,0-1.027,0.535-1.027,1.489v1.072c0,0.953-0.001,1.277,1.027,1.277h18.93
				c1.026,0,0.898-0.281,0.898-1.234v-1.072C42.248,32.159,42.376,31.581,41.35,31.581z"/>
			<g>
				<path fill="#777777" d="M23.029,43.095h-8.434c-4.509,0-8.178-3.668-8.178-8.176v-2.838c0-4.509,3.669-8.177,8.178-8.177h8.435
					c2.07,0,4.047,0.776,5.564,2.185l-2.903,3.124c-0.726-0.674-1.673-1.045-2.662-1.045h-8.435c-2.16,0-3.915,1.755-3.915,3.913
					v2.838c0,2.157,1.756,3.911,3.915,3.911h8.435c0.989,0,1.936-0.369,2.662-1.045l2.903,3.124
					C27.077,42.32,25.101,43.095,23.029,43.095z"/>
				<path fill="#777777" d="M49.354,43.095h-8.438c-2.068,0-4.048-0.776-5.562-2.186l2.901-3.124
					c0.726,0.676,1.673,1.045,2.661,1.045h8.438c2.158,0,3.914-1.754,3.914-3.911v-2.838c0-2.158-1.756-3.912-3.914-3.912h-8.438
					c-0.988,0-1.936,0.371-2.661,1.045l-2.901-3.124c1.518-1.41,3.494-2.186,5.562-2.186h8.439c4.506,0,8.177,3.669,8.177,8.177
					v2.839C57.529,39.43,53.861,43.095,49.354,43.095z"/>
			</g>
		</g>
	</g>
	<g id="Layer_1_1_">
	</g>
</g>
</svg>
