<svg xmlns="http://www.w3.org/2000/svg" viewBox="0 0 1024 1024"><path d="M730 256H293.6c-20.8 0-37.8 16.5-37.8 36.9V731c0 20.4 16.9 36.9 37.8 36.9H730c20.9 0 37.9-16.6 37.9-36.9V292.9c-.1-20.4-17.1-36.9-37.9-36.9zM407.7 692.3h-76V448h76v244.3zm-37.9-277.7c-24.4 0-44.1-19.7-44.1-44s19.7-44 44.1-44c24.3 0 44 19.7 44 44 0 24.2-19.7 44-44 44zm322.4 277.7h-75.9V573.5c0-28.3-.5-64.8-39.5-64.8-39.5 0-45.5 30.9-45.5 62.8v120.8h-75.8V448h72.8v33.4h1c10.1-19.2 34.9-39.5 71.8-39.5 76.9 0 91.1 50.6 91.1 116.4v134z"/></svg>