<svg width="66" height="66" viewBox="0 0 66 66" xmlns="http://www.w3.org/2000/svg"><title>Slice 1</title><g fill="none" fill-rule="evenodd"><path d="M33 65c17.673 0 32-14.327 32-32C65 15.327 50.673 1 33 1 15.327 1 1 15.327 1 33c0 17.673 14.327 32 32 32z" fill="#27757B"/><g fill="#FFF"><path d="M42.882 31.9H24.928c-.975 0-2.674.558-2.674 1.483v1.04c0 .925 1.7 1.192 2.674 1.192h17.954c.974 0 1.18-.267 1.18-1.19v-1.042c0-.925-.206-1.484-1.18-1.484"/><path d="M25.422 43.106h-8c-4.276 0-7.755-3.557-7.755-7.93v-2.75c0-4.373 3.48-7.93 7.755-7.93h8c1.964 0 3.837.753 5.277 2.12l-2.754 3.03c-.688-.655-1.584-1.014-2.524-1.014h-8c-2.046 0-3.71 1.7-3.71 3.793v2.752c0 2.092 1.664 3.793 3.71 3.793h8c.94 0 1.836-.36 2.524-1.013l2.753 3.03c-1.44 1.367-3.314 2.12-5.278 2.12M50.386 43.106h-8c-1.963 0-3.837-.754-5.276-2.12l2.754-3.03c.687.655 1.584 1.014 2.523 1.014h8c2.046 0 3.71-1.7 3.71-3.793v-2.752c0-2.092-1.664-3.793-3.71-3.793h-8c-.94 0-1.836.36-2.523 1.013l-2.754-3.03c1.44-1.366 3.313-2.12 5.277-2.12h8c4.277 0 7.756 3.558 7.756 7.93v2.752c0 4.372-3.48 7.93-7.757 7.93"/></g></g></svg>