<?xml version="1.0" encoding="utf-8"?>
<!-- Generator: Adobe Illustrator 15.0.0, SVG Export Plug-In . SVG Version: 6.00 Build 0)  -->
<!DOCTYPE svg PUBLIC "-//W3C//DTD SVG 1.1//EN" "http://www.w3.org/Graphics/SVG/1.1/DTD/svg11.dtd">
<svg version="1.1" id="Layer_1" xmlns="http://www.w3.org/2000/svg" xmlns:xlink="http://www.w3.org/1999/xlink" x="0px" y="0px"
	 width="64px" height="64px" viewBox="0 0 64 64" enable-background="new 0 0 64 64" xml:space="preserve">
<g id="LinkedIn">
	<g id="Square_1_">
		<linearGradient id="SVGID_1_" gradientUnits="userSpaceOnUse" x1="32" y1="0.3335" x2="32" y2="63.3754">
			<stop  offset="0" style="stop-color:#75BAE8"/>
			<stop  offset="1" style="stop-color:#1F71B8"/>
		</linearGradient>
		<path fill="url(#SVGID_1_)" d="M10.501,64C4.712,64,0,59.29,0,53.5v-43C0,4.711,4.712,0,10.501,0h43.002C59.29,0,64,4.711,64,10.5
			v43C64,59.29,59.29,64,53.503,64H10.501z"/>
	</g>
	<path id="n" fill="#FFFFFF" d="M26.191,32.913c0-3.614-0.119-6.635-0.239-9.242h7.821l0.413,4.028h0.18
		c1.186-1.896,4.087-4.68,8.944-4.68c5.924,0,10.366,3.969,10.366,12.5v17.12h-9.005V36.584c0-3.732-1.302-6.279-4.561-6.279
		c-2.487,0-3.97,1.718-4.621,3.377c-0.237,0.592-0.295,1.421-0.295,2.25v16.706h-9.004V32.913z"/>
	<path id="i" fill="#FFFFFF" d="M22.476,15.614c0,2.488-1.833,4.502-4.855,4.502c-2.845,0-4.681-2.014-4.681-4.502
		c0-2.547,1.896-4.502,4.799-4.502C20.643,11.112,22.416,13.067,22.476,15.614z M13.177,52.639V23.67h9.004v28.969H13.177z"/>
</g>
</svg>
