<?xml version="1.0" encoding="utf-8"?>
<!-- Generator: Adobe Illustrator 19.2.1, SVG Export Plug-In . SVG Version: 6.00 Build 0)  -->
<svg version="1.1" id="icon" xmlns="http://www.w3.org/2000/svg" xmlns:xlink="http://www.w3.org/1999/xlink" x="0px" y="0px"
	 viewBox="0 0 1024 1024" style="enable-background:new 0 0 1024 1024;" xml:space="preserve">
<path id="linkedin" d="M730,256H293.6c-20.8,0-37.8,16.5-37.8,36.9V731c0,20.4,16.9,36.9,37.8,36.9H730c20.9,0,37.9-16.6,37.9-36.9
	V292.9C767.8,272.5,750.8,256,730,256z M407.7,692.3h-76V448h76V692.3z M369.8,414.6c-24.4,0-44.1-19.7-44.1-44s19.7-44,44.1-44
	c24.3,0,44,19.7,44,44C413.8,394.8,394.1,414.6,369.8,414.6z M692.2,692.3h-75.9V573.5c0-28.3-0.5-64.8-39.5-64.8
	c-39.5,0-45.5,30.9-45.5,62.8v120.8h-75.8V448h72.8v33.4h1c10.1-19.2,34.9-39.5,71.8-39.5c76.9,0,91.1,50.6,91.1,116.4L692.2,692.3
	L692.2,692.3z"/>
</svg>
