<?xml version="1.0" encoding="UTF-8" standalone="no"?>
<svg width="30px" height="30px" viewBox="0 0 30 30" version="1.1" xmlns="http://www.w3.org/2000/svg" xmlns:xlink="http://www.w3.org/1999/xlink" xmlns:sketch="http://www.bohemiancoding.com/sketch/ns">
    <!-- Generator: Sketch 3.3.3 (12081) - http://www.bohemiancoding.com/sketch -->
    <title>Slice 1</title>
    <desc>Created with Sketch.</desc>
    <defs></defs>
    <g id="Page-1" stroke="none" stroke-width="1" fill="none" fill-rule="evenodd" sketch:type="MSPage">
        <path d="M15,30 C23.2842712,30 30,23.2842712 30,15 C30,6.71572875 23.2842712,0 15,0 C6.71572875,0 0,6.71572875 0,15 C0,23.2842712 6.71572875,30 15,30 Z" id="Oval-1-Copy-10" fill="#27757B" sketch:type="MSShapeGroup"></path>
        <g id="Imported-Layers" sketch:type="MSLayerGroup" transform="translate(4.000000, 11.000000)" fill="#FFFFFF">
            <path d="M15.6323333,3.48387097 L7.21632099,3.48387097 C6.75944444,3.48387097 5.96296296,3.74603226 5.96296296,4.17948387 L5.96296296,4.66751613 C5.96296296,5.10067742 6.75944444,5.22580645 7.21632099,5.22580645 L15.6323333,5.22580645 C16.088642,5.22580645 16.1851852,5.10067742 16.1851852,4.66751613 L16.1851852,4.17948387 C16.1851852,3.74603226 16.088642,3.48387097 15.6323333,3.48387097" id="Fill-1" sketch:type="MSShapeGroup"></path>
            <path d="M7.44774074,8.73725806 L3.69788889,8.73725806 C1.69348148,8.73725806 0.0627530864,7.06993548 0.0627530864,5.02054839 L0.0627530864,3.73035484 C0.0627530864,1.68096774 1.69348148,0.0133548387 3.69788889,0.0133548387 L7.44774074,0.0133548387 C8.36830864,0.0133548387 9.2465679,0.366677419 9.92151852,1.00741935 L8.63096296,2.4273871 C8.30839506,2.12080645 7.8884321,1.95270968 7.44774074,1.95270968 L3.69788889,1.95270968 C2.7387037,1.95270968 1.95840741,2.74993548 1.95840741,3.73035484 L1.95840741,5.02054839 C1.95840741,6.00096774 2.7387037,6.79848387 3.69788889,6.79848387 L7.44774074,6.79848387 C7.8878642,6.79848387 8.30839506,6.63009677 8.63096296,6.32351613 L9.92151852,7.74348387 C9.2465679,8.38451613 8.36830864,8.73725806 7.44774074,8.73725806" id="Fill-2" sketch:type="MSShapeGroup"></path>
            <path d="M19.1499136,8.73725806 L15.4000617,8.73725806 C14.4794938,8.73725806 13.6012346,8.38393548 12.9265679,7.74348387 L14.2174074,6.32351613 C14.5396914,6.63009677 14.9599383,6.79848387 15.4000617,6.79848387 L19.1499136,6.79848387 C20.1093827,6.79848387 20.889679,6.00096774 20.889679,5.02054839 L20.889679,3.73035484 C20.889679,2.74993548 20.1093827,1.95270968 19.1499136,1.95270968 L15.4000617,1.95270968 C14.9599383,1.95270968 14.5396914,2.12080645 14.2174074,2.4273871 L12.9265679,1.00741935 C13.6012346,0.366677419 14.4794938,0.0133548387 15.4000617,0.0133548387 L19.1499136,0.0133548387 C21.1548889,0.0133548387 22.7859012,1.68096774 22.7859012,3.73035484 L22.7859012,5.02054839 C22.7859012,7.06993548 21.1548889,8.73725806 19.1499136,8.73725806" id="Fill-3" sketch:type="MSShapeGroup"></path>
        </g>
    </g>
</svg>