<?xml version="1.0" encoding="UTF-8" standalone="no"?>
<svg width="30px" height="31px" viewBox="0 0 30 31" version="1.1" xmlns="http://www.w3.org/2000/svg" xmlns:xlink="http://www.w3.org/1999/xlink" xmlns:sketch="http://www.bohemiancoding.com/sketch/ns">
    <!-- Generator: Sketch 3.3.3 (12081) - http://www.bohemiancoding.com/sketch -->
    <title>Slice 1</title>
    <desc>Created with Sketch.</desc>
    <defs></defs>
    <g id="Page-1" stroke="none" stroke-width="1" fill="none" fill-rule="evenodd" sketch:type="MSPage">
        <g id="linkedin" sketch:type="MSLayerGroup">
            <path d="M15,30.7613636 C23.2842712,30.7613636 30,24.0456349 30,15.7613636 C30,7.47709239 23.2842712,0.761363636 15,0.761363636 C6.71572875,0.761363636 0,7.47709239 0,15.7613636 C0,24.0456349 6.71572875,30.7613636 15,30.7613636 Z" id="Oval-1-Copy-9" fill="#0077B5" sketch:type="MSShapeGroup"></path>
            <g id="Imported-Layers" transform="translate(7.000000, 7.000000)" fill="#FFFFFF" sketch:type="MSShapeGroup">
                <path d="M5.31800046,8.27753545 C5.31800046,6.96650962 5.2748197,5.86993611 5.23127608,4.92395097 L8.06923153,4.92395097 L8.21909415,6.38592801 L8.28440958,6.38592801 C8.71440283,5.69793881 9.76743272,4.68736396 11.5298607,4.68736396 C13.6794641,4.68736396 15.2916667,6.12793206 15.2916667,9.2235206 L15.2916667,15.4353809 L12.0240808,15.4353809 L12.0240808,9.60997023 C12.0240808,8.25576364 11.5516326,7.33118744 10.3690604,7.33118744 C9.46661887,7.33118744 8.9284923,7.9549498 8.69226816,8.55694035 C8.60626951,8.7721184 8.58522343,9.07256938 8.58522343,9.37374609 L8.58522343,15.4353809 L5.31800046,15.4353809 L5.31800046,8.27753545" id="Fill-1"></path>
                <path d="M3.96959969,2.0007226 C3.96959969,2.90352699 3.30447089,3.63469694 2.20789738,3.63469694 C1.17555072,3.63469694 0.509333333,2.90352699 0.509333333,2.0007226 C0.509333333,1.07614639 1.19732253,0.367111111 2.25071528,0.367111111 C3.30447089,0.367111111 3.94819074,1.07614639 3.96959969,2.0007226 L3.96959969,2.0007226 Z M0.595331983,4.92395097 L3.86255495,4.92395097 L3.86255495,15.4357437 L0.595331983,15.4357437 L0.595331983,4.92395097 Z" id="Fill-2"></path>
            </g>
        </g>
    </g>
</svg>