<?xml version="1.0" encoding="utf-8"?>
<!-- Generator: Adobe Illustrator 16.0.4, SVG Export Plug-In . SVG Version: 6.00 Build 0)  -->
<!DOCTYPE svg PUBLIC "-//W3C//DTD SVG 1.1//EN" "http://www.w3.org/Graphics/SVG/1.1/DTD/svg11.dtd">
<svg version="1.1" id="Layer_1" xmlns="http://www.w3.org/2000/svg" xmlns:xlink="http://www.w3.org/1999/xlink" x="0px" y="0px"
	 width="64px" height="64px" viewBox="0 0 64 64" enable-background="new 0 0 64 64" xml:space="preserve">
<g id="Square_1_">
	<path fill="#0077B5" d="M10.501,63.826C4.712,63.826,0,59.116,0,53.329v-42.99C0,4.552,4.712-0.158,10.501-0.158h43.002
		C59.29-0.158,64,4.552,64,10.339v42.99c0,5.787-4.71,10.497-10.497,10.497H10.501z"/>
</g>
<path id="n" fill="#FFFFFF" d="M26.191,32.754c0-3.613-0.119-6.635-0.239-9.242h7.821l0.413,4.029h0.18
	c1.186-1.896,4.087-4.681,8.944-4.681c5.924,0,10.366,3.97,10.366,12.501V52.48h-9.005V36.426c0-3.731-1.302-6.279-4.561-6.279
	c-2.487,0-3.97,1.719-4.621,3.378c-0.237,0.593-0.295,1.421-0.295,2.251V52.48h-9.004V32.754z"/>
<path id="i" fill="#FFFFFF" d="M22.476,15.456c0,2.488-1.833,4.503-4.855,4.503c-2.845,0-4.681-2.015-4.681-4.503
	c0-2.548,1.896-4.502,4.799-4.502C20.643,10.954,22.416,12.908,22.476,15.456z M13.177,52.48V23.512h9.004V52.48H13.177z"/>
</svg>
