<?xml version="1.0" encoding="UTF-8" standalone="no"?>
<svg width="30px" height="30px" viewBox="0 0 30 30" version="1.1" xmlns="http://www.w3.org/2000/svg" xmlns:xlink="http://www.w3.org/1999/xlink" xmlns:sketch="http://www.bohemiancoding.com/sketch/ns">
    <!-- Generator: Sketch 3.3.3 (12081) - http://www.bohemiancoding.com/sketch -->
    <title>Slice 1</title>
    <desc>Created with Sketch.</desc>
    <defs></defs>
    <g id="Page-1" stroke="none" stroke-width="1" fill="none" fill-rule="evenodd" sketch:type="MSPage">
        <g id="pinterest" sketch:type="MSLayerGroup">
            <path d="M15,30 C23.2842712,30 30,23.2842712 30,15 C30,6.71572875 23.2842712,0 15,0 C6.71572875,0 0,6.71572875 0,15 C0,23.2842712 6.71572875,30 15,30 Z" id="Oval-1-Copy-8" fill="#CA2027" sketch:type="MSShapeGroup"></path>
            <path d="M10.8723256,24.6217273 C10.8412791,23.8582727 11.0293023,21.5920909 11.227093,20.7612727 C11.439186,19.8734545 12.647907,14.8028727 12.647907,14.8028727 C12.647907,14.8028727 12.2948837,14.1047091 12.2948837,13.0731818 C12.2948837,11.4523091 13.2433721,10.2418364 14.4248837,10.2418364 C15.4284884,10.2418364 15.9140698,10.9890545 15.9140698,11.8834364 C15.9140698,12.8835273 15.2704651,14.3793455 14.9390698,15.7646182 C14.6627907,16.9243091 15.5261628,17.8701636 16.6815116,17.8701636 C18.7738372,17.8701636 20.1827907,15.2094727 20.1827907,12.0568545 C20.1827907,9.66043636 18.5533721,7.86683636 15.5889535,7.86683636 C12.2390698,7.86683636 10.1523256,10.3399455 10.1523256,13.1028909 C10.1523256,14.0556545 10.4359302,14.7275636 10.8806977,15.2474727 C11.0851163,15.4865273 11.1130233,15.5829091 11.0394186,15.8572 C10.9863953,16.0582545 10.865,16.5425818 10.8137209,16.7346545 C10.7404651,17.0117091 10.5140698,17.1105091 10.2611628,17.0082545 C8.71825581,16.3843636 8,14.7120182 8,12.8306727 C8,9.72434545 10.6452326,6 15.8910465,6 C20.1074419,6 22.8810465,9.02134545 22.8810465,12.2641273 C22.8810465,16.5532909 20.4730233,19.7580727 16.9239535,19.7580727 C15.7319767,19.7580727 14.6104651,19.1196727 14.2260465,18.3952545 C14.2260465,18.3952545 13.5852326,20.9143091 13.4502326,21.4007091 C13.215814,22.2436182 12.3374419,24.3104727 11.9188372,24.9671818 L10.8723256,24.6217273" id="Imported-Layers" fill="#FFFFFF" sketch:type="MSShapeGroup"></path>
        </g>
    </g>
</svg>