<?xml version="1.0" encoding="utf-8"?>
<!-- Generator: Adobe Illustrator 15.0.0, SVG Export Plug-In . SVG Version: 6.00 Build 0)  -->
<!DOCTYPE svg PUBLIC "-//W3C//DTD SVG 1.1//EN" "http://www.w3.org/Graphics/SVG/1.1/DTD/svg11.dtd">
<svg version="1.1" id="Layer_1" xmlns="http://www.w3.org/2000/svg" xmlns:xlink="http://www.w3.org/1999/xlink" x="0px" y="0px"
	 width="64px" height="65.561px" viewBox="0 0 64 65.561" enable-background="new 0 0 64 65.561" xml:space="preserve">
<path fill="#CB2327" d="M10.5,64C4.711,64,0,59.29,0,53.5v-43C0,4.71,4.711,0,10.5,0h43.004C59.29,0,64,4.71,64,10.5v43
	C64,59.29,59.29,64,53.504,64H10.5z"/>
<g>
	<path fill="#FFFFFF" d="M19.593,64.561c-0.089-2.21,0.45-8.771,1.017-11.175c0.608-2.57,4.073-17.248,4.073-17.248
		s-1.012-2.021-1.012-5.008c0-4.69,2.719-8.194,6.105-8.194c2.877,0,4.27,2.163,4.27,4.752c0,2.895-1.846,7.224-2.795,11.233
		c-0.792,3.358,1.683,6.096,4.995,6.096c5.997,0,10.036-7.702,10.036-16.828c0-6.938-4.671-12.129-13.169-12.129
		c-9.603,0-15.585,7.16-15.585,15.158c0,2.758,0.813,4.702,2.088,6.207c0.586,0.692,0.666,0.971,0.455,1.766
		c-0.151,0.582-0.5,1.983-0.646,2.54c-0.21,0.802-0.859,1.088-1.584,0.792c-4.423-1.806-6.482-6.648-6.482-12.093
		c0-8.992,7.583-19.773,22.621-19.773c12.087,0,20.038,8.745,20.038,18.132c0,12.417-6.903,21.693-17.077,21.693
		c-3.417,0-6.632-1.847-7.733-3.945c0,0-1.837,7.292-2.225,8.701c-0.672,2.441-3.189,8.422-4.39,10.324L19.593,64.561z"/>
</g>
</svg>
