<svg width="66" height="66" viewBox="0 0 66 66" xmlns="http://www.w3.org/2000/svg"><title>Slice 1</title><g fill="none" fill-rule="evenodd"><path d="M33 65c17.673 0 32-14.327 32-32C65 15.327 50.673 1 33 1 15.327 1 1 15.327 1 33c0 17.673 14.327 32 32 32z" fill="#CA2027"/><path d="M24.194 53.526c-.066-1.628.335-6.463.757-8.235.454-1.893 3.032-12.71 3.032-12.71s-.753-1.49-.753-3.69c0-3.458 2.023-6.04 4.543-6.04 2.14 0 3.177 1.593 3.177 3.5 0 2.135-1.373 5.326-2.08 8.28-.59 2.475 1.252 4.493 3.717 4.493 4.464 0 7.47-5.676 7.47-12.402 0-5.11-3.476-8.937-9.8-8.937-7.147 0-11.6 5.276-11.6 11.17 0 2.032.606 3.466 1.555 4.575.436.51.496.716.34 1.3-.114.43-.373 1.463-.483 1.873-.157.592-.64.802-1.18.584-3.29-1.33-4.823-4.898-4.823-8.912 0-6.627 5.643-14.572 16.834-14.572 8.996 0 14.913 6.446 14.913 13.363 0 9.15-5.137 15.988-12.71 15.988-2.54 0-4.934-1.36-5.754-2.907 0 0-1.368 5.374-1.656 6.412-.5 1.798-2.374 6.207-3.267 7.608l-2.233-.737" fill="#FFF"/></g></svg>