<svg xmlns="http://www.w3.org/2000/svg" viewBox="0 0 1024 1024"><path d="M768 512c0 141.4-114.6 256-256 256-26.4 0-51.8-4-75.8-11.4 10.4-17 26-44.9 31.8-67.1 3.1-12 15.9-60.9 15.9-60.9 8.3 15.9 32.7 29.4 58.7 29.4 77.2 0 132.8-71 132.8-159.2 0-84.6-69-147.9-157.8-147.9-110.5 0-169.1 74.2-169.1 154.9 0 37.5 20 84.3 52 99.2 4.9 2.3 7.4 1.3 8.6-3.4.8-3.6 5.2-20.9 7.1-29 .6-2.6.3-4.8-1.8-7.3-10.6-12.8-19.1-36.4-19.1-58.4 0-56.5 42.8-111.1 115.6-111.1 62.9 0 106.9 42.9 106.9 104.2 0 69.3-35 117.2-80.5 117.2-25.1 0-43.9-20.8-37.9-46.3 7.2-30.4 21.2-63.3 21.2-85.2 0-19.7-10.6-36.1-32.4-36.1-25.7 0-46.3 26.6-46.3 62.2 0 22.7 7.7 38 7.7 38S424.2 657 419.6 677c-5.1 22.1-3.1 53.2-.9 73.4C323.5 713.1 256 620.5 256 512c0-141.4 114.6-256 256-256s256 114.6 256 256z"/></svg>