<?xml version="1.0" encoding="utf-8"?>
<!-- Generator: Adobe Illustrator 16.0.4, SVG Export Plug-In . SVG Version: 6.00 Build 0)  -->
<!DOCTYPE svg PUBLIC "-//W3C//DTD SVG 1.1//EN" "http://www.w3.org/Graphics/SVG/1.1/DTD/svg11.dtd">
<svg version="1.1" id="Layer_1" xmlns="http://www.w3.org/2000/svg" xmlns:xlink="http://www.w3.org/1999/xlink" x="0px" y="0px"
	 width="64px" height="64px" viewBox="0 0 64 64" enable-background="new 0 0 64 64" xml:space="preserve">
<path fill="#CEE3F8" d="M10.418,63.5C4.674,63.5,0,58.826,0,53.082V10.418C0,4.674,4.674,0,10.418,0h42.666
	C58.828,0,63.5,4.674,63.5,10.418v42.664c0,5.744-4.672,10.418-10.416,10.418H10.418z"/>
<g>
	<polyline fill="none" stroke="#555150" stroke-linecap="round" stroke-linejoin="round" points="31.418,24.518 32.986,14.303 
		45.811,17.152 	"/>
	<linearGradient id="SVGID_1_" gradientUnits="userSpaceOnUse" x1="45.1309" y1="14.0498" x2="45.1309" y2="20.7634">
		<stop  offset="0" style="stop-color:#FFFFFF"/>
		<stop  offset="1" style="stop-color:#DCE1E7"/>
	</linearGradient>
	<circle fill="url(#SVGID_1_)" stroke="#555150" stroke-width="1.0093" cx="45.131" cy="16.998" r="4.375"/>
	<linearGradient id="SVGID_2_" gradientUnits="userSpaceOnUse" x1="14.375" y1="25.5996" x2="14.375" y2="32.5207">
		<stop  offset="0" style="stop-color:#FFFFFF"/>
		<stop  offset="1" style="stop-color:#DCE1E7"/>
	</linearGradient>
	<ellipse fill="url(#SVGID_2_)" stroke="#555150" stroke-width="1.0093" cx="14.375" cy="30.809" rx="4.875" ry="4.627"/>
	<linearGradient id="SVGID_3_" gradientUnits="userSpaceOnUse" x1="49.125" y1="25.5996" x2="49.125" y2="32.5207">
		<stop  offset="0" style="stop-color:#FFFFFF"/>
		<stop  offset="1" style="stop-color:#DCE1E7"/>
	</linearGradient>
	<ellipse fill="url(#SVGID_3_)" stroke="#555150" stroke-width="1.0093" cx="49.125" cy="30.809" rx="4.875" ry="4.627"/>
	<linearGradient id="SVGID_4_" gradientUnits="userSpaceOnUse" x1="31.4175" y1="25.1514" x2="31.4175" y2="50.3656">
		<stop  offset="0" style="stop-color:#FFFFFF"/>
		<stop  offset="1" style="stop-color:#DCE1E7"/>
	</linearGradient>
	<ellipse fill="url(#SVGID_4_)" stroke="#555150" stroke-width="1.0093" cx="31.418" cy="37.676" rx="19.25" ry="13.201"/>
	<linearGradient id="SVGID_5_" gradientUnits="userSpaceOnUse" x1="31.4175" y1="25.6387" x2="31.4175" y2="49.8717">
		<stop  offset="0" style="stop-color:#FFFFFF"/>
		<stop  offset="1" style="stop-color:#DCE1E7"/>
	</linearGradient>
	<ellipse fill="url(#SVGID_5_)" cx="31.418" cy="37.676" rx="18.5" ry="12.688"/>
	<path fill="#555150" d="M38.521,41.723c-0.426,0.436-1.33,0.945-2.535,1.293c-1.205,0.352-2.701,0.568-4.318,0.568
		c-1.613,0-3.111-0.217-4.316-0.568c-1.205-0.348-2.111-0.857-2.535-1.295c-0.445-0.445-1.168-0.447-1.613-0.002
		c-0.445,0.439-0.449,1.162-0.004,1.609c0.857,0.855,2.066,1.445,3.512,1.875c1.449,0.422,3.141,0.658,4.957,0.66
		c1.816-0.002,3.51-0.238,4.957-0.66c1.447-0.43,2.656-1.02,3.516-1.875c0.443-0.447,0.439-1.17-0.008-1.609
		C39.686,41.273,38.965,41.277,38.521,41.723z"/>
	<g>
		<circle fill="#E63D11" cx="24.367" cy="34.307" r="2.621"/>
		<circle fill="#E63D11" cx="39.033" cy="34.307" r="2.623"/>
	</g>
</g>
</svg>
