<?xml version="1.0" encoding="UTF-8" standalone="no"?>
<svg width="30px" height="30px" viewBox="0 0 30 30" version="1.1" xmlns="http://www.w3.org/2000/svg" xmlns:xlink="http://www.w3.org/1999/xlink" xmlns:sketch="http://www.bohemiancoding.com/sketch/ns">
    <!-- Generator: Sketch 3.3.3 (12081) - http://www.bohemiancoding.com/sketch -->
    <title>Slice 1</title>
    <desc>Created with Sketch.</desc>
    <defs>
        <path id="path-1" d="M16.9682609,6.2667 C16.9682609,9.54765 13.2208696,12.20715 8.59869565,12.20715 C3.97652174,12.20715 0.229130435,9.54765 0.229130435,6.2667 C0.229130435,2.98665 3.97652174,0.32715 8.59869565,0.32715 C13.2208696,0.32715 16.9682609,2.98665 16.9682609,6.2667"></path>
    </defs>
    <g id="Page-1" stroke="none" stroke-width="1" fill="none" fill-rule="evenodd" sketch:type="MSPage">
        <g id="g+-copy" sketch:type="MSLayerGroup" fill="#CEE3F8">
            <circle id="Oval-1-Copy-8" sketch:type="MSShapeGroup" cx="15" cy="15" r="15"></circle>
        </g>
        <g id="Imported-Layers" sketch:type="MSLayerGroup" transform="translate(5.000000, 5.000000)">
            <path d="M9.90304348,5.7456 L10.5852174,1.14885 L16.1608696,2.4309" id="Stroke-1" stroke="#555150" stroke-linecap="round" stroke-linejoin="round" sketch:type="MSShapeGroup"></path>
            <path d="M17.7673913,2.3616 C17.7673913,3.4488 16.9156522,4.33035 15.8652174,4.33035 C14.8147826,4.33035 13.9630435,3.4488 13.9630435,2.3616 C13.9630435,1.2744 14.8147826,0.39285 15.8652174,0.39285 C16.9156522,0.39285 17.7673913,1.2744 17.7673913,2.3616 L17.7673913,2.3616 Z" id="Fill-2" fill="#FFFFFF" sketch:type="MSShapeGroup"></path>
            <path d="M17.7673913,2.3616 C17.7673913,3.4488 16.9156522,4.33035 15.8652174,4.33035 C14.8147826,4.33035 13.9630435,3.4488 13.9630435,2.3616 C13.9630435,1.2744 14.8147826,0.39285 15.8652174,0.39285 C16.9156522,0.39285 17.7673913,1.2744 17.7673913,2.3616 L17.7673913,2.3616 Z" id="Stroke-3" stroke="#555150" stroke-width="1.009" sketch:type="MSShapeGroup"></path>
            <path d="M4.6126087,8.57655 C4.6126087,9.72585 3.66434783,10.65825 2.49304348,10.65825 C1.32304348,10.65825 0.373478261,9.72585 0.373478261,8.57655 C0.373478261,7.4268 1.32304348,6.4953 2.49304348,6.4953 C3.66434783,6.4953 4.6126087,7.4268 4.6126087,8.57655 L4.6126087,8.57655 Z" id="Fill-4" fill="#FFFFFF" sketch:type="MSShapeGroup"></path>
            <path d="M4.6126087,8.57655 C4.6126087,9.72585 3.66434783,10.65825 2.49304348,10.65825 C1.32304348,10.65825 0.373478261,9.72585 0.373478261,8.57655 C0.373478261,7.4268 1.32304348,6.4953 2.49304348,6.4953 C3.66434783,6.4953 4.6126087,7.4268 4.6126087,8.57655 L4.6126087,8.57655 Z" id="Stroke-5" stroke="#555150" stroke-width="1.009" sketch:type="MSShapeGroup"></path>
            <path d="M19.7213043,8.57655 C19.7213043,9.72585 18.7721739,10.65825 17.6017391,10.65825 C16.4317391,10.65825 15.4821739,9.72585 15.4821739,8.57655 C15.4821739,7.4268 16.4317391,6.4953 17.6017391,6.4953 C18.7721739,6.4953 19.7213043,7.4268 19.7213043,8.57655 L19.7213043,8.57655 Z" id="Fill-6" fill="#FFFFFF" sketch:type="MSShapeGroup"></path>
            <path d="M19.7213043,8.57655 C19.7213043,9.72585 18.7721739,10.65825 17.6017391,10.65825 C16.4317391,10.65825 15.4821739,9.72585 15.4821739,8.57655 C15.4821739,7.4268 16.4317391,6.4953 17.6017391,6.4953 C18.7721739,6.4953 19.7213043,7.4268 19.7213043,8.57655 L19.7213043,8.57655 Z" id="Stroke-7" stroke="#555150" stroke-width="1.009" sketch:type="MSShapeGroup"></path>
            <g id="Group-10" transform="translate(1.304348, 5.400000)">
                <mask id="mask-2" sketch:name="Clip 9" fill="white">
                    <use xlink:href="#path-1"></use>
                </mask>
                <g id="Clip-9"></g>
                <path d="M16.9682609,6.2667 C16.9682609,9.54765 13.2208696,12.20715 8.59869565,12.20715 C3.97652174,12.20715 0.229130435,9.54765 0.229130435,6.2667 C0.229130435,2.98665 3.97652174,0.32715 8.59869565,0.32715 C13.2208696,0.32715 16.9682609,2.98665 16.9682609,6.2667" id="Fill-8" sketch:type="MSShapeGroup" mask="url(#mask-2)"></path>
            </g>
            <path d="M18.2726087,11.6667 C18.2726087,14.94765 14.5252174,17.60715 9.90304348,17.60715 C5.28086957,17.60715 1.53347826,14.94765 1.53347826,11.6667 C1.53347826,8.38665 5.28086957,5.72715 9.90304348,5.72715 C14.5252174,5.72715 18.2726087,8.38665 18.2726087,11.6667 L18.2726087,11.6667 Z" id="Stroke-11" stroke="#555150" stroke-width="1.009" sketch:type="MSShapeGroup"></path>
            <path d="M17.9465217,11.6667 C17.9465217,14.8203 14.3452174,17.37585 9.90304348,17.37585 C5.46086957,17.37585 1.85956522,14.8203 1.85956522,11.6667 C1.85956522,8.514 5.46086957,5.958 9.90304348,5.958 C14.3452174,5.958 17.9465217,8.514 17.9465217,11.6667" id="Fill-12" fill="#FFFFFF" sketch:type="MSShapeGroup"></path>
            <path d="M12.9917391,13.48785 C12.8065217,13.6836 12.4134783,13.9131 11.8895652,14.0697 C11.3656522,14.22765 10.7147826,14.3253 10.0117391,14.3253 C9.31043478,14.3253 8.65913043,14.22765 8.13521739,14.0697 C7.61130435,13.9131 7.2173913,13.6836 7.03304348,13.48695 C6.83913043,13.28625 6.52521739,13.28535 6.33130435,13.48605 C6.13782609,13.6836 6.13608696,14.00895 6.33,14.2101 C6.7026087,14.5953 7.22826087,14.86035 7.85652174,15.05385 C8.48652174,15.24375 9.22217391,15.34995 10.0117391,15.35085 C10.8017391,15.34995 11.5378261,15.24375 12.1669565,15.05385 C12.7965217,14.86035 13.3221739,14.5953 13.6956522,14.2101 C13.8882609,14.00895 13.8865217,13.6836 13.6921739,13.48605 C13.4978261,13.28535 13.1843478,13.28715 12.9917391,13.48785" id="Fill-13" fill="#555150" sketch:type="MSShapeGroup"></path>
            <path d="M7.9773913,10.15065 C7.9773913,10.8018 7.46608696,11.331 6.83782609,11.331 C6.2073913,11.331 5.69782609,10.8018 5.69782609,10.15065 C5.69782609,9.49905 6.2073913,8.9721 6.83782609,8.9721 C7.46608696,8.9721 7.9773913,9.49905 7.9773913,10.15065" id="Fill-14" fill="#E63D11" sketch:type="MSShapeGroup"></path>
            <path d="M14.3547826,10.15065 C14.3547826,10.8018 13.8443478,11.331 13.2147826,11.331 C12.583913,11.331 12.0734783,10.8018 12.0734783,10.15065 C12.0734783,9.49905 12.583913,8.9721 13.2147826,8.9721 C13.8443478,8.9721 14.3547826,9.49905 14.3547826,10.15065" id="Fill-15" fill="#E63D11" sketch:type="MSShapeGroup"></path>
        </g>
    </g>
</svg>