<svg width="66" height="66" viewBox="0 0 66 66" xmlns="http://www.w3.org/2000/svg"><title>Slice 1</title><g fill="none" fill-rule="evenodd"><circle cx="32" cy="32" r="32" fill="#CEE3F8" transform="translate(1 1)"/><path d="M33.26 24.534l1.256-8.428 10.28 2.35" stroke="#555150"/><path d="M47.76 18.33c0 1.993-1.572 3.61-3.51 3.61-1.935 0-3.506-1.617-3.506-3.61 0-1.994 1.57-3.61 3.507-3.61 1.938 0 3.51 1.616 3.51 3.61z" fill="#FFF"/><path d="M47.76 18.33c0 1.993-1.572 3.61-3.51 3.61-1.935 0-3.506-1.617-3.506-3.61 0-1.994 1.57-3.61 3.507-3.61 1.938 0 3.51 1.616 3.51 3.61z" stroke="#555150" stroke-width="1.009"/><path d="M23.504 29.724c0 2.107-1.748 3.816-3.907 3.816-2.158 0-3.908-1.71-3.908-3.816 0-2.108 1.75-3.816 3.907-3.816 2.16 0 3.907 1.708 3.907 3.816z" fill="#FFF"/><path d="M23.504 29.724c0 2.107-1.748 3.816-3.907 3.816-2.158 0-3.908-1.71-3.908-3.816 0-2.108 1.75-3.816 3.907-3.816 2.16 0 3.907 1.708 3.907 3.816z" stroke="#555150" stroke-width="1.009"/><path d="M51.36 29.724c0 2.107-1.75 3.816-3.907 3.816s-3.908-1.71-3.908-3.816c0-2.108 1.75-3.816 3.908-3.816s3.908 1.708 3.908 3.816z" fill="#FFF"/><path d="M51.36 29.724c0 2.107-1.75 3.816-3.907 3.816s-3.908-1.71-3.908-3.816c0-2.108 1.75-3.816 3.908-3.816s3.908 1.708 3.908 3.816z" stroke="#555150" stroke-width="1.009"/><path d="M48.69 35.39c0 6.014-6.91 10.89-15.43 10.89-8.523 0-15.433-4.876-15.433-10.89S24.737 24.5 33.26 24.5c8.52 0 15.43 4.876 15.43 10.89z" stroke="#555150" stroke-width="1.009"/><path d="M48.09 35.39c0 5.78-6.64 10.466-14.83 10.466-8.192 0-14.83-4.685-14.83-10.467 0-5.78 6.638-10.467 14.83-10.467 8.19 0 14.83 4.686 14.83 10.466" fill="#FFF"/><path d="M38.954 38.728c-.342.36-1.067.78-2.033 1.066-.965.29-2.165.47-3.46.47-1.294 0-2.495-.18-3.46-.47-.967-.287-1.693-.707-2.033-1.068-.357-.368-.936-.37-1.294-.002-.356.363-.36.96-.002 1.328.688.706 1.657 1.192 2.815 1.547 1.162.347 2.518.542 3.974.543 1.456 0 2.813-.196 3.973-.544 1.16-.356 2.13-.842 2.818-1.548.356-.37.353-.965-.005-1.328-.358-.368-.936-.364-1.29.004" fill="#555150"/><path d="M29.708 32.61c0 1.193-.942 2.164-2.1 2.164-1.163 0-2.103-.97-2.103-2.164 0-1.195.94-2.16 2.102-2.16 1.16 0 2.1.965 2.1 2.16M41.467 32.61c0 1.193-.94 2.164-2.102 2.164-1.163 0-2.105-.97-2.105-2.164 0-1.195.942-2.16 2.105-2.16 1.16 0 2.102.965 2.102 2.16" fill="#E63D11"/></g></svg>