<svg xmlns="http://www.w3.org/2000/svg" viewBox="0 0 1024 1024"><path fill="#2d333a" d="M468.703 490.847l68.27-22.867 22.105 65.994-68.27 22.868z"/><path d="M468.703 490.847l68.27-22.867 22.105 65.994-68.27 22.868z"/><path d="M748.5 441.6c-52.8-176-128.9-216.9-304.9-164.1s-217 128.9-164.2 304.9 128.9 216.9 304.9 164.1 217-128.9 164.2-304.9zm-88.8 114.2l-33.2 11.1 11.5 34.4c4.5 13.9-2.9 29.1-16.8 33.6-2.9.8-6.1 1.6-9 1.2-10.6-.4-20.9-7.4-24.6-18l-11.5-34.4-68.4 22.9 11.5 34.4c4.5 13.9-2.9 29.1-16.8 33.6-2.9.8-6.1 1.6-9 1.2-10.6-.4-20.9-7.4-24.6-18l-11.5-34.4-33.2 11.1c-2.9.8-6.1 1.6-9 1.2-10.6-.4-20.9-7.4-24.6-18-4.5-13.9 2.9-29.1 16.8-33.6l33.2-11.1-22.1-65.9-33.2 11.1c-2.9.8-6.1 1.6-9 1.2-10.6-.4-20.9-7.4-24.6-18-4.5-13.9 2.9-29.1 16.8-33.6l33.2-11.1-11.5-34.4c-4.5-13.9 2.9-29.1 16.8-33.6s29.1 2.9 33.6 16.8l11.5 34.4 68.4-22.9-11.5-34.4c-4.5-13.9 2.9-29.1 16.8-33.6s29.1 2.9 33.6 16.8l11.5 34.4 33.2-11.1c13.9-4.5 29.1 2.9 33.6 16.8s-2.9 29.1-16.8 33.6l-33.2 11.1 22.1 65.9 33.2-11.1c13.9-4.5 29.1 2.9 33.6 16.8s-2.9 29.1-16.8 33.6z"/></svg>