<?xml version="1.0" encoding="UTF-8" standalone="no"?>
<svg width="34px" height="33px" viewBox="0 0 34 33" version="1.1" xmlns="http://www.w3.org/2000/svg" xmlns:xlink="http://www.w3.org/1999/xlink" xmlns:sketch="http://www.bohemiancoding.com/sketch/ns">
    <!-- Generator: Sketch 3.3.3 (12081) - http://www.bohemiancoding.com/sketch -->
    <title>Slice 1</title>
    <desc>Created with Sketch.</desc>
    <defs>
        <path id="path-1" d="M16.4882638,30.969 C24.5879517,30.4593082 31,23.728172 31,15.5 C31,6.93986667 24.0601333,0 15.5,0 C6.93986667,0 0,6.93986667 0,15.5 C0,23.728172 6.41204833,30.4593082 14.5117362,30.969 L16.4882638,30.969"></path>
    </defs>
    <g id="Page-1" stroke="none" stroke-width="1" fill="none" fill-rule="evenodd" sketch:type="MSPage">
        <g id="Imported-Layers" sketch:type="MSLayerGroup" transform="translate(2.000000, 0.000000)">
            <mask id="mask-2" sketch:name="Clip 2" fill="white">
                <use xlink:href="#path-1"></use>
            </mask>
            <g id="Clip-2"></g>
            <path d="M4.32811667,32.9375 C1.36038333,32.9375 -1.054,30.5226 -1.054,27.5553833 L-1.054,23.8958333 L9.02306667,23.8958333 C10.87325,23.8958333 12.3793333,22.8495833 12.3793333,21.5625667 L12.3793333,18.4625667 C12.3793333,17.8983667 11.90865,17.4380167 11.3310167,17.4380167 L7.71435,17.4380167 C6.29765,17.4380167 5.146,16.1050167 5.146,14.4666667 C5.146,12.8283167 6.53531667,11.4958333 8.24393333,11.4958333 L14.7064,11.4958333 C16.4150167,11.4958333 17.8043333,12.8856667 17.8043333,14.5942833 L17.8043333,20.5395667 C17.8043333,22.3907833 19.3099,23.8958333 21.1606,23.8958333 L21.9397333,23.8958333 C23.79095,23.8958333 25.296,22.3907833 25.296,20.5395667 L25.296,0.129166667 L26.3727333,0.129166667 C29.3404667,0.129166667 31.7543333,2.54406667 31.7543333,5.5118 L31.7543333,27.5553833 C31.7543333,30.5226 29.3404667,32.9375 26.3727333,32.9375 L4.32811667,32.9375" id="Fill-1" fill="#0176BC" sketch:type="MSShapeGroup" mask="url(#mask-2)"></path>
            <path d="M21.1606,23.6375 C19.4519833,23.6375 18.0626667,22.2481833 18.0626667,20.5395667 L18.0626667,14.5942833 C18.0626667,12.7430667 16.5571,11.2375 14.7064,11.2375 L8.24393333,11.2375 C6.39271667,11.2375 4.88766667,12.68675 4.88766667,14.4666667 C4.88766667,16.2476167 6.15556667,17.69635 7.71435,17.69635 L11.3310167,17.69635 C11.76605,17.69635 12.121,18.04045 12.121,18.4625667 L12.121,21.5625667 C12.121,22.7064667 10.7311667,23.6375 9.02306667,23.6375 L-1.054,23.6375 L-1.054,5.5118 C-1.054,2.54406667 1.36038333,0.129166667 4.32811667,0.129166667 L25.0376667,0.129166667 L25.0376667,20.5395667 C25.0376667,22.2481833 23.64835,23.6375 21.9397333,23.6375 L21.1606,23.6375" id="Fill-3" fill="#1DAD56" sketch:type="MSShapeGroup" mask="url(#mask-2)"></path>
            <path d="M13.89575,20.3969667 C13.9779,17.9546833 11.9169167,15.8570167 9.30361667,15.7221667 L8.31936667,15.6699833 C7.37025,15.6214167 6.56631667,14.8345333 6.56631667,13.95 C6.56631667,13.0964667 7.35785,12.3617667 8.28216667,12.3617667 L14.7456667,12.3617667 C15.6699833,12.3617667 16.3835,13.1533 16.3835,14.0776167 L16.3835,20.0249667 C16.3835,22.6584167 18.5261167,24.8 21.1595667,24.8 L21.9407667,24.8 C24.5747333,24.8 26.7168333,22.6584167 26.7168333,20.0249667 L26.7168333,0.0341 C26.6011,0.0284166667 26.49105,0 26.3727333,0 L23.6168333,0 L23.6168333,20.0249667 C23.6168333,20.9492833 22.8650833,21.7 21.9407667,21.7 L21.1595667,21.7 C20.23525,21.7 19.4835,20.9492833 19.4835,20.0249667 L19.4835,14.0776167 C19.4835,11.44365 17.3414,9.3 14.7064,9.3 L8.24393333,9.3 C5.60996667,9.3 3.46683333,11.3868167 3.46683333,13.95 C3.46683333,16.4713333 5.57173333,18.6320333 8.15713333,18.7653333 L9.14086667,18.8180333 C10.06415,18.8666 10.82365,19.54085 10.7978167,20.2931167 C10.7730167,21.05675 9.95926667,21.7 9.02306667,21.7 L-1.18316667,21.7 L-1.18316667,24.8 L9.02306667,24.8 C11.6286167,24.8 13.8146333,22.8242667 13.89575,20.3969667" id="Fill-4" fill="#FFFFFF" sketch:type="MSShapeGroup" mask="url(#mask-2)"></path>
        </g>
    </g>
</svg>