<?xml version="1.0" encoding="utf-8"?>
<!-- Generator: Adobe Illustrator 16.0.4, SVG Export Plug-In . SVG Version: 6.00 Build 0)  -->
<!DOCTYPE svg PUBLIC "-//W3C//DTD SVG 1.1//EN" "http://www.w3.org/Graphics/SVG/1.1/DTD/svg11.dtd">
<svg version="1.1" id="Layer_1" xmlns="http://www.w3.org/2000/svg" xmlns:xlink="http://www.w3.org/1999/xlink" x="0px" y="0px"
	 width="64px" height="64px" viewBox="0 0 64 64" enable-background="new 0 0 64 64" xml:space="preserve">
<path fill="#0176BC" d="M10.668,63.75c-5.744,0-10.417-4.674-10.417-10.417V46.25h19.504c3.581,0,6.497-2.025,6.497-4.516v-6
	c0-1.093-0.912-1.983-2.03-1.983h-7c-2.741,0-4.971-2.58-4.971-5.751s2.689-5.75,5.997-5.75h12.507c3.306,0,5.996,2.689,5.996,5.997
	v11.507c0,3.583,2.916,6.496,6.498,6.496h1.506c3.584,0,6.498-2.913,6.498-6.496V0.25h2.084c5.742,0,10.414,4.674,10.414,10.418
	v42.665c0,5.743-4.672,10.417-10.414,10.417H10.668z"/>
<path fill="#1DAD56" d="M43.248,45.75c-3.309,0-5.998-2.688-5.998-5.996V28.247c0-3.583-2.914-6.497-6.496-6.497H18.247
	c-3.583,0-6.497,2.805-6.497,6.25c0,3.447,2.454,6.251,5.471,6.251h7c0.843,0,1.53,0.666,1.53,1.483v6
	c0,2.214-2.69,4.016-5.997,4.016H0.25V10.668C0.25,4.924,4.924,0.25,10.668,0.25h40.084v39.504c0,3.308-2.689,5.996-5.998,5.996
	H43.248z"/>
<path fill="#FFFFFF" d="M29.185,39.478c0.159-4.727-3.829-8.786-8.888-9.048l-1.905-0.101C16.555,30.235,15,28.712,15,27
	c0-1.652,1.532-3.074,3.32-3.074H30.83c1.79,0,3.17,1.532,3.17,3.321v11.511C34,43.855,38.148,48,43.244,48h1.514
	c5.096,0,9.244-4.145,9.244-9.242V0.066C53.777,0.055,53.564,0,53.336,0h-5.334v38.758c0,1.789-1.457,3.242-3.244,3.242h-1.514
	C41.455,42,40,40.547,40,38.758V27.247C40,22.149,35.855,18,30.754,18H18.247C13.149,18,9,22.039,9,27
	c0,4.88,4.074,9.062,9.078,9.32l1.904,0.102c1.787,0.094,3.257,1.399,3.207,2.855C23.141,40.755,21.567,42,19.754,42H0v6h19.754
	C24.797,48,29.029,44.176,29.185,39.478z"/>
</svg>
