<?xml version="1.0" encoding="utf-8"?>
<!-- Generator: Adobe Illustrator 15.0.0, SVG Export Plug-In . SVG Version: 6.00 Build 0)  -->
<!DOCTYPE svg PUBLIC "-//W3C//DTD SVG 1.1//EN" "http://www.w3.org/Graphics/SVG/1.1/DTD/svg11.dtd">
<svg version="1.1" id="Layer_1" xmlns="http://www.w3.org/2000/svg" xmlns:xlink="http://www.w3.org/1999/xlink" x="0px" y="0px"
	 width="64px" height="64px" viewBox="0 0 64 64" enable-background="new 0 0 64 64" xml:space="preserve">
<g id="Stumbleupon">
	<g>
		
			<radialGradient id="SVGID_1_" cx="37.624" cy="33.6729" r="38.0056" gradientTransform="matrix(0.9695 0 0 0.9695 -4.477 -0.6464)" gradientUnits="userSpaceOnUse">
			<stop  offset="0.0798" style="stop-color:#39A8E0"/>
			<stop  offset="1" style="stop-color:#1F71B8"/>
		</radialGradient>
		<path fill="url(#SVGID_1_)" d="M10.667,63.75c-5.744,0-10.417-4.674-10.417-10.417V46.25h19.504c3.582,0,6.496-2.026,6.496-4.516
			v-6c0-1.093-0.91-1.984-2.029-1.984h-7c-2.741,0-4.971-2.58-4.971-5.751s2.689-5.75,5.997-5.75h12.507
			c3.307,0,5.996,2.689,5.996,5.997v11.507c0,3.583,2.914,6.497,6.496,6.497h1.508c3.583,0,6.496-2.914,6.496-6.497V0.25h2.084
			c5.744,0,10.416,4.674,10.416,10.417v42.665c0,5.744-4.672,10.417-10.416,10.417H10.667z"/>
		<path display="none" fill="#195EA6" d="M53.334,0.5C58.939,0.5,63.5,5.062,63.5,10.667v42.665c0,5.606-4.561,10.167-10.166,10.167
			H10.667C5.062,63.5,0.5,58.938,0.5,53.333V46.5h19.254c3.72,0,6.746-2.137,6.746-4.766v-6c0-1.232-1.022-2.234-2.279-2.234h-7
			C14.618,33.5,12.5,31.034,12.5,28c0-3.032,2.579-5.5,5.747-5.5h12.507c3.168,0,5.746,2.579,5.746,5.747v11.507
			c0,3.72,3.026,6.747,6.746,6.747h1.508c3.721,0,6.746-3.026,6.746-6.747V0.5H53.334 M53.334,0H51v39.753
			C51,43.191,48.189,46,44.754,46h-1.508C39.811,46,37,43.191,37,39.753V28.247C37,24.813,34.189,22,30.754,22H18.247
			C14.81,22,12,24.699,12,28C12,31.301,14.35,34,17.221,34s6.021,0,7,0S26,34.781,26,35.734c0,0.954,0,3.652,0,6
			C26,44.078,23.189,46,19.754,46H0v7.333C0,59.203,4.801,64,10.667,64h42.667C59.201,64,64,59.203,64,53.333V10.667
			C64,4.801,59.201,0,53.334,0L53.334,0z"/>
	</g>
	<g>
		
			<radialGradient id="SVGID_2_" cx="35.1719" cy="31.373" r="44.5804" gradientTransform="matrix(0.9695 0 0 0.9695 -4.477 -0.6464)" gradientUnits="userSpaceOnUse">
			<stop  offset="0.1472" style="stop-color:#8DBE25"/>
			<stop  offset="1" style="stop-color:#468735"/>
		</radialGradient>
		<path fill="url(#SVGID_2_)" d="M43.246,45.75c-3.307,0-5.996-2.689-5.996-5.997V28.247c0-3.583-2.914-6.497-6.496-6.497H18.247
			c-3.583,0-6.497,2.804-6.497,6.25c0,3.447,2.454,6.251,5.471,6.251h7c0.842,0,1.529,0.666,1.529,1.484v6
			c0,2.214-2.689,4.016-5.996,4.016H0.25V10.667C0.25,4.924,4.923,0.25,10.667,0.25H50.75v39.503c0,3.308-2.688,5.997-5.996,5.997
			H43.246z"/>
		<path display="none" fill="#237B34" d="M50.5,0.5v39.253c0,3.169-2.578,5.747-5.746,5.747h-1.508
			c-3.168,0-5.746-2.578-5.746-5.747V28.247c0-3.72-3.026-6.747-6.746-6.747H18.247c-3.72,0-6.747,2.916-6.747,6.5
			c0,3.584,2.566,6.501,5.721,6.501h7c0.705,0,1.279,0.553,1.279,1.234v6c0,2.042-2.631,3.766-5.746,3.766H0.5V10.667
			C0.5,5.062,5.062,0.5,10.667,0.5H50.5 M51,0H10.667C4.801,0,0,4.801,0,10.667V46h19.754C23.189,46,26,44.078,26,41.734
			c0-2.347,0-5.046,0-6C26,34.781,25.199,34,24.221,34s-4.129,0-7,0S12,31.301,12,28c0-3.301,2.811-6,6.247-6h12.507
			C34.189,22,37,24.813,37,28.247v11.507C37,43.191,39.811,46,43.246,46h1.508C48.189,46,51,43.191,51,39.753V0L51,0z"/>
	</g>
	<linearGradient id="SVGID_3_" gradientUnits="userSpaceOnUse" x1="0" y1="26.0044" x2="54" y2="26.0044">
		<stop  offset="0" style="stop-color:#E9ECEE"/>
		<stop  offset="1" style="stop-color:#CBCED1"/>
	</linearGradient>
	<path display="none" fill="url(#SVGID_3_)" d="M29.186,41.477c0.158-4.724-3.83-8.782-8.889-9.048l-1.905-0.097
		C16.555,32.235,15,30.711,15,29.004c0-1.656,1.532-3.079,3.32-3.079h12.51c1.789,0,3.17,1.532,3.17,3.321v11.511
		c0,5.097,4.146,9.246,9.244,9.246h1.512c5.098,0,9.244-4.149,9.244-9.246V2.07c-0.225-0.016-0.438-0.065-0.666-0.065H48v38.753
		c0,1.789-1.455,3.247-3.244,3.247h-1.512c-1.789,0-3.244-1.458-3.244-3.247V29.247c0-5.098-4.146-9.242-9.246-9.242H18.247
		c-5.098,0-9.247,4.035-9.247,9c0,4.879,4.074,9.058,9.078,9.32l1.904,0.098c1.787,0.093,3.256,1.403,3.207,2.856
		c-0.049,1.477-1.623,2.727-3.436,2.727H0v6h19.754C24.797,50.004,29.027,46.18,29.186,41.477z"/>
	<path fill="#FFFFFF" d="M29.186,39.477c0.158-4.727-3.83-8.786-8.889-9.048l-1.905-0.101C16.555,30.235,15,28.711,15,27
		c0-1.652,1.532-3.074,3.32-3.074h12.51c1.789,0,3.17,1.532,3.17,3.321v11.511C34,43.855,38.146,48,43.244,48h1.512
		C49.854,48,54,43.855,54,38.758V0.066C53.775,0.054,53.562,0,53.334,0H48v38.758C48,40.547,46.545,42,44.756,42h-1.512
		C41.455,42,40,40.547,40,38.758V27.247C40,22.149,35.854,18,30.754,18H18.247C13.148,18,9,22.039,9,27
		c0,4.88,4.074,9.062,9.078,9.321l1.904,0.102c1.787,0.094,3.256,1.399,3.207,2.855C23.141,40.754,21.566,42,19.754,42H0v6h19.754
		C24.797,48,29.027,44.176,29.186,39.477z"/>
	<g display="none" opacity="0.5">
		<path display="inline" fill="#DCDEE2" d="M18.247,20.004h12.507c5.101,0,9.246,4.144,9.246,9.242v-2
			C40,22.149,35.854,18,30.754,18H18.247C13.148,18,9,22.039,9,27c0,0.344,0.065,0.672,0.103,1.004
			C9.621,23.516,13.498,20.004,18.247,20.004z"/>
		<path display="inline" fill="#DCDEE2" d="M23.189,41.278c0.014-0.375-0.08-0.743-0.248-1.079C22.43,41.234,21.172,42,19.754,42H0
			v2.004h19.754C21.566,44.004,23.141,42.754,23.189,41.278z"/>
		<path display="inline" fill="#DCDEE2" d="M40,40.758c0,1.789,1.455,3.247,3.244,3.247h1.512c1.789,0,3.244-1.458,3.244-3.247v-2
			C48,40.547,46.545,42,44.756,42h-1.512C41.455,42,40,40.547,40,38.758V40.758z"/>
		<path display="inline" fill="#DCDEE2" d="M53.334,0H48v2.004h5.334c0.229,0,0.441,0.05,0.666,0.065V0.066
			C53.775,0.054,53.562,0,53.334,0z"/>
		<path display="inline" fill="#DCDEE2" d="M20.297,30.429l-1.905-0.101c-1.46-0.075-2.726-1.056-3.192-2.313
			c-0.119,0.313-0.2,0.645-0.2,0.988c0,1.708,1.555,3.231,3.392,3.329l1.905,0.097c4.58,0.243,8.248,3.598,8.791,7.735
			c0.029-0.231,0.09-0.453,0.098-0.687C29.344,34.75,25.355,30.691,20.297,30.429z"/>
	</g>
	<g display="none" opacity="0.3">
		<linearGradient id="SVGID_4_" gradientUnits="userSpaceOnUse" x1="32" y1="62.25" x2="32" y2="28.2189">
			<stop  offset="0" style="stop-color:#FFFFFF"/>
			<stop  offset="1" style="stop-color:#010202"/>
		</linearGradient>
		<path display="inline" fill="url(#SVGID_4_)" d="M53.334,2H10.667C5.888,2,2,5.89,2,10.667v42.665C2,58.113,5.888,62,10.667,62
			h42.667C58.114,62,62,58.113,62,53.333V10.667C62,5.89,58.114,2,53.334,2z M60,53.333C60,57.008,57.01,60,53.334,60H10.667
			C6.992,60,4,57.008,4,53.333V10.667C4,6.992,6.992,4,10.667,4h42.667C57.01,4,60,6.992,60,10.667V53.333z"/>
	</g>
	<g display="none" opacity="0.7">
		<linearGradient id="SVGID_5_" gradientUnits="userSpaceOnUse" x1="32" y1="2.0557" x2="32" y2="12.5635">
			<stop  offset="0" style="stop-color:#FFFFFF"/>
			<stop  offset="1" style="stop-color:#010202"/>
		</linearGradient>
		<path display="inline" fill="url(#SVGID_5_)" d="M53.334,2H10.667C5.888,2,2,5.89,2,10.667v2C2,7.891,5.888,4,10.667,4h42.667
			C58.114,4,62,7.891,62,12.667v-2C62,5.89,58.114,2,53.334,2z"/>
	</g>
	<g display="none">
		<linearGradient id="SVGID_6_" gradientUnits="userSpaceOnUse" x1="32" y1="0.3335" x2="32" y2="63.3754">
			<stop  offset="0" style="stop-color:#E9ECEE"/>
			<stop  offset="1" style="stop-color:#CBCED1"/>
		</linearGradient>
		<path display="inline" fill="url(#SVGID_6_)" d="M53.334,0H10.667C4.801,0,0,4.801,0,10.667v42.665C0,59.203,4.801,64,10.667,64
			h42.667C59.201,64,64,59.203,64,53.333V10.667C64,4.801,59.201,0,53.334,0z M62,53.333C62,58.113,58.114,62,53.334,62H10.667
			C5.888,62,2,58.113,2,53.333V10.667C2,5.89,5.888,2,10.667,2h42.667C58.114,2,62,5.89,62,10.667V53.333z"/>
	</g>
</g>
</svg>
