<svg width="66" height="66" viewBox="0 0 66 66" xmlns="http://www.w3.org/2000/svg" xmlns:xlink="http://www.w3.org/1999/xlink"><title>Slice 1</title><defs><path id="a" d="M34.04 63.936C50.762 62.884 64 48.986 64 32 64 14.327 49.673 0 32 0 14.327 0 0 14.327 0 32c0 16.987 13.238 30.884 29.96 31.936h4.08"/><path id="c" d="M34.04 63.936C50.762 62.884 64 48.986 64 32 64 14.327 49.673 0 32 0 14.327 0 0 14.327 0 32c0 16.987 13.238 30.884 29.96 31.936h4.08"/><path id="e" d="M34.04 63.936C50.762 62.884 64 48.986 64 32 64 14.327 49.673 0 32 0 14.327 0 0 14.327 0 32c0 16.987 13.238 30.884 29.96 31.936h4.08"/></defs><g fill="none" fill-rule="evenodd"><path d="M34.946 64.815c16.676-1.05 29.878-14.92 29.878-31.876C64.824 15.3 50.536 1 32.912 1S1 15.3 1 32.94c0 16.954 13.2 30.825 29.877 31.875h4.07" id="b" fill="#FFF"/><path d="M8.935 68c-6.126 0-11.11-4.986-11.11-11.11v-7.557h20.803c3.82 0 6.93-2.16 6.93-4.817v-6.4c0-1.165-.972-2.115-2.165-2.115h-7.467c-2.924 0-5.302-2.75-5.302-6.133s2.868-6.134 6.396-6.134h13.342c3.527 0 6.395 2.87 6.395 6.397v12.274c0 3.822 3.11 6.93 6.93 6.93h1.608c3.822 0 6.93-3.108 6.93-6.93V.267h2.222c6.127 0 11.11 4.985 11.11 11.112v45.51c0 6.124-4.983 11.11-11.11 11.11H8.935" fill="#0176BC" mask="url(#b)" transform="translate(1 1)"/><g transform="translate(1 1)"><mask id="d" fill="#fff"><use xlink:href="#c"/></mask><path d="M43.686 48.8c-3.527 0-6.395-2.868-6.395-6.396V30.13c0-3.822-3.108-6.93-6.928-6.93H17.02c-3.822 0-6.93 2.992-6.93 6.667 0 3.676 2.618 6.667 5.836 6.667h7.467c.898 0 1.63.71 1.63 1.582v6.4c0 2.362-2.868 4.284-6.395 4.284H-2.176V11.38C-2.176 5.25 2.81.266 8.934.266h42.757v42.137c0 3.528-2.868 6.396-6.395 6.396h-1.61" fill="#1DAD56" mask="url(#d)"/></g><g transform="translate(1 1)"><mask id="f" fill="#fff"><use xlink:href="#e"/></mask><path d="M28.688 42.11c.17-5.042-4.085-9.373-9.48-9.65l-2.033-.11c-1.96-.1-3.62-1.724-3.62-3.55 0-1.762 1.635-3.28 3.544-3.28h13.343c1.908 0 3.38 1.635 3.38 3.543v12.28c0 5.436 4.424 9.857 9.86 9.857h1.614c5.438 0 9.86-4.42 9.86-9.858V.07c-.24-.01-.466-.07-.71-.07h-5.69v41.342c0 1.908-1.552 3.458-3.46 3.458h-1.613c-1.908 0-3.46-1.55-3.46-3.458v-12.28c0-5.436-4.422-9.862-9.862-9.862H17.02c-5.438 0-9.863 4.308-9.863 9.6 0 5.205 4.346 9.666 9.684 9.94l2.03.11c1.908.1 3.476 1.492 3.422 3.045-.05 1.577-1.73 2.905-3.664 2.905h-21.07v6.4h21.07c5.38 0 9.893-4.08 10.06-9.09" fill="#FFF" mask="url(#f)"/></g></g></svg>