<?xml version="1.0" encoding="utf-8"?>
<!-- Generator: Adobe Illustrator 19.2.1, SVG Export Plug-In . SVG Version: 6.00 Build 0)  -->
<svg version="1.1" id="icon" xmlns="http://www.w3.org/2000/svg" xmlns:xlink="http://www.w3.org/1999/xlink" x="0px" y="0px"
	 viewBox="0 0 1024 1024" style="enable-background:new 0 0 1024 1024;" xml:space="preserve">
<path id="tumblr" d="M368.1,471.9c-1.3,0-2.3-1-2.3-2.3v-70.8c0-0.9,0.6-1.8,1.5-2.1c58-22.6,90.3-67.4,98.8-136.7
	c0.5-3.9,3.7-4,3.7-4h72.4c1.3,0,2.3,1,2.3,2.3v124.4c0,1.3,1,2.3,2.3,2.3h90.1c1.3,0,2.3,1,2.3,2.3v82.2c0,1.3-1,2.3-2.3,2.3h-90.5
	c-1.3,0-2.3,1-2.3,2.3v147.7c0.5,33.3,16.6,50.1,47.8,50.1c12.6,0,27-2.9,40.1-7.9c1.2-0.5,2.6,0.2,3,1.4l23,68.2
	c0.3,0.9,0.1,1.8-0.6,2.4c-17.3,16.7-52.9,29-87,29.6h-3.8c-112.1,0-142-85.6-142-136.2V474.3c0-1.3-1-2.3-2.3-2.3"/>
</svg>
