<?xml version="1.0" encoding="utf-8"?>
<!-- Generator: Adobe Illustrator 16.0.4, SVG Export Plug-In . SVG Version: 6.00 Build 0)  -->
<!DOCTYPE svg PUBLIC "-//W3C//DTD SVG 1.1//EN" "http://www.w3.org/Graphics/SVG/1.1/DTD/svg11.dtd">
<svg version="1.1" id="Layer_1" xmlns="http://www.w3.org/2000/svg" xmlns:xlink="http://www.w3.org/1999/xlink" x="0px" y="0px"
	 width="64px" height="64px" viewBox="0 0 64 64" enable-background="new 0 0 64 64" xml:space="preserve">
<path fill="#34465D" d="M10.78,64c-5.789,0-10.5-4.71-10.5-10.5v-43C0.28,4.711,4.991,0,10.78,0h43.003
	c5.787,0,10.496,4.711,10.496,10.5v43c0,5.79-4.709,10.5-10.496,10.5H10.78z"/>
<linearGradient id="SVGID_1_" gradientUnits="userSpaceOnUse" x1="32.145" y1="9.4214" x2="32.145" y2="53.1364">
	<stop  offset="0" style="stop-color:#FFFFFF"/>
	<stop  offset="1" style="stop-color:#F2F5F9"/>
</linearGradient>
<path fill="url(#SVGID_1_)" d="M34.082,9.611v10.295h10.293v7.945H34.082v11.412c0,2.584-0.033,4.071,0.24,4.804
	c0.273,0.729,0.953,1.484,1.695,1.921c0.986,0.591,2.111,0.887,3.379,0.887c2.254,0,4.496-0.732,6.725-2.197v7.02
	c-1.9,0.895-3.625,1.523-5.166,1.886c-1.543,0.358-3.211,0.54-5.002,0.54c-2.037,0-3.236-0.256-4.799-0.768
	c-1.563-0.517-2.897-1.252-4-2.197c-1.106-0.953-1.87-1.965-2.298-3.035c-0.427-1.071-0.639-2.627-0.639-4.662V27.852h-6.048v-6.304
	c1.748-0.567,3.776-1.382,5.02-2.44c1.25-1.063,2.25-2.336,3.004-3.823c0.755-1.484,1.276-3.378,1.56-5.673H34.082z"/>
</svg>
