<?xml version="1.0" encoding="UTF-8" standalone="no"?>
<svg width="30px" height="30px" viewBox="0 0 30 30" version="1.1" xmlns="http://www.w3.org/2000/svg" xmlns:xlink="http://www.w3.org/1999/xlink" xmlns:sketch="http://www.bohemiancoding.com/sketch/ns">
    <!-- Generator: Sketch 3.3.3 (12081) - http://www.bohemiancoding.com/sketch -->
    <title>Slice 1</title>
    <desc>Created with Sketch.</desc>
    <defs>
        <path id="path-1" d="M6.31665517,0.212521739 L6.31665517,3.7933913 L10.2201379,3.7933913 L10.2201379,6.55721739 L6.31665517,6.55721739 L6.31665517,10.5266087 C6.31665517,11.4253913 6.30413793,11.9426087 6.40731034,12.1972174 C6.51086207,12.4507826 6.76917241,12.7137391 7.05062069,12.8653913 C7.42462069,13.0709565 7.85096552,13.173913 8.33193103,13.173913 C9.18689655,13.173913 10.0373103,12.9193043 10.8824138,12.4097391 L10.8824138,14.8511304 C10.1621034,15.1624348 9.5077931,15.3812174 8.92327586,15.5071304 C8.33762069,15.6316522 7.70568966,15.6949565 7.02596552,15.6949565 C6.25368966,15.6949565 5.79851724,15.605913 5.20565517,15.4278261 C4.61241379,15.2483478 4.10641379,14.9923478 3.68841379,14.6636522 C3.26889655,14.3321739 2.97872414,13.9801739 2.81675862,13.608 C2.6547931,13.2354783 2.57437931,12.6942609 2.57437931,11.9864348 L2.57437931,6.55721739 L0.280310345,6.55721739 L0.280310345,4.36452174 C0.943344828,4.16695652 1.71258621,3.88382609 2.18444828,3.51547826 C2.65858621,3.14573913 3.03789655,2.70295652 3.32389655,2.18573913 C3.61027586,1.66956522 3.80789655,1.01078261 3.91524138,0.212521739 L6.31665517,0.212521739"></path>
    </defs>
    <g id="Page-1" stroke="none" stroke-width="1" fill="none" fill-rule="evenodd" sketch:type="MSPage">
        <circle id="Oval-1-Copy-8" fill="#34465D" sketch:type="MSShapeGroup" cx="15" cy="15" r="15"></circle>
        <g id="Imported-Layers" sketch:type="MSLayerGroup" transform="translate(9.000000, 6.000000)">
            <mask id="mask-2" sketch:name="Clip 2" fill="white">
                <use xlink:href="#path-1"></use>
            </mask>
            <use id="Clip-2" fill="#FFFFFF" sketch:type="MSShapeGroup" xlink:href="#path-1"></use>
        </g>
    </g>
</svg>