<svg xmlns="http://www.w3.org/2000/svg" viewBox="0 0 1024 1024"><path d="M368.1 471.9c-1.3 0-2.3-1-2.3-2.3v-70.8c0-.9.6-1.8 1.5-2.1 58-22.6 90.3-67.4 98.8-136.7.5-3.9 3.7-4 3.7-4h72.4c1.3 0 2.3 1 2.3 2.3v124.4c0 1.3 1 2.3 2.3 2.3h90.1c1.3 0 2.3 1 2.3 2.3v82.2c0 1.3-1 2.3-2.3 2.3h-90.5c-1.3 0-2.3 1-2.3 2.3v147.7c.5 33.3 16.6 50.1 47.8 50.1 12.6 0 27-2.9 40.1-7.9 1.2-.5 2.6.2 3 1.4l23 68.2c.3.9.1 1.8-.6 2.4-17.3 16.7-52.9 29-87 29.6h-3.8c-112.1 0-142-85.6-142-136.2V474.3c0-1.3-1-2.3-2.3-2.3"/></svg>