<svg width="66" height="66" viewBox="0 0 66 66" xmlns="http://www.w3.org/2000/svg"><title>Slice 1</title><g transform="translate(1 1)" fill="none" fill-rule="evenodd"><circle fill="#34465D" cx="32" cy="32" r="32"/><g fill="#FFF"><path d="M34.81 15.387v7.64h8.326v5.895H34.81v8.468c0 1.918-.028 3.02.192 3.564.22.54.772 1.102 1.373 1.426.798.438 1.707.658 2.733.658 1.824 0 3.638-.543 5.44-1.63v5.208c-1.536.664-2.93 1.13-4.178 1.4-1.25.265-2.598.4-4.048.4-1.647 0-2.618-.19-3.883-.57-1.268-.383-2.347-.93-3.24-1.63-.894-.707-1.513-1.458-1.86-2.252-.344-.795-.516-1.95-.516-3.46V28.922H21.93v-4.678c1.416-.42 3.057-1.025 4.063-1.81 1.012-.79 1.82-1.734 2.43-2.838.612-1.1 1.034-2.506 1.263-4.21h5.123"/><path d="M34.81 15.387v7.64h8.326v5.895H34.81v8.468c0 1.918-.028 3.02.192 3.564.22.54.772 1.102 1.373 1.426.798.438 1.707.658 2.733.658 1.824 0 3.638-.543 5.44-1.63v5.208c-1.536.664-2.93 1.13-4.178 1.4-1.25.265-2.598.4-4.048.4-1.647 0-2.618-.19-3.883-.57-1.268-.383-2.347-.93-3.24-1.63-.894-.707-1.513-1.458-1.86-2.252-.344-.795-.516-1.95-.516-3.46V28.922H21.93v-4.678c1.416-.42 3.057-1.025 4.063-1.81 1.012-.79 1.82-1.734 2.43-2.838.612-1.1 1.034-2.506 1.263-4.21h5.123"/></g></g></svg>