<?xml version="1.0" encoding="UTF-8" standalone="no"?>
<svg width="30px" height="30px" viewBox="0 0 30 30" version="1.1" xmlns="http://www.w3.org/2000/svg" xmlns:xlink="http://www.w3.org/1999/xlink" xmlns:sketch="http://www.bohemiancoding.com/sketch/ns">
    <!-- Generator: Sketch 3.3.3 (12081) - http://www.bohemiancoding.com/sketch -->
    <title>Slice 1</title>
    <desc>Created with Sketch.</desc>
    <defs></defs>
    <g id="Page-1" stroke="none" stroke-width="1" fill="none" fill-rule="evenodd" sketch:type="MSPage">
        <g id="twitter" sketch:type="MSLayerGroup">
            <circle id="Oval-1-Copy-5" fill="#6BACDE" sketch:type="MSShapeGroup" cx="15" cy="15" r="15"></circle>
            <path d="M15.4593421,11.9152635 C15.4593421,12.183263 15.4895364,12.4439606 15.5477543,12.6940013 C12.7081044,12.5515156 10.1903303,11.1911913 8.50517007,9.12396408 C8.21112057,9.6285846 8.04258481,10.2154995 8.04258481,10.8418842 C8.04258481,12.0271602 8.64587966,13.0731081 9.56256418,13.6856783 C9.00248869,13.6679169 8.47576512,13.5141823 8.014956,13.2584185 L8.0145613,13.3014405 C8.0145613,14.956801 9.19253544,16.3378469 10.7555368,16.6516313 C10.4687892,16.7297814 10.1670431,16.771422 9.85542959,16.771422 C9.63518849,16.771422 9.42106519,16.7499109 9.21246766,16.7102439 C9.64722675,18.0676079 10.9090741,19.0555353 12.4043849,19.0831641 C11.2348967,19.999454 9.76168898,20.545715 8.16079666,20.545715 C7.88510058,20.545715 7.61315413,20.5295325 7.3457467,20.4979567 C8.85783212,21.4675306 10.6539023,22.0331319 12.5833801,22.0331319 C18.8681455,22.0331319 22.304775,16.8266796 22.304775,12.3115396 C22.304775,12.1633308 22.3016174,12.0159113 22.2951049,11.8694786 C22.9625381,11.3877505 23.5419538,10.7860345 24,10.1008399 C23.3872324,10.372589 22.7286799,10.5563206 22.0375649,10.638615 C22.7430864,10.2158942 23.2848085,9.54629021 23.5397829,8.74840958 C22.879849,9.14014667 22.1484749,9.42432874 21.3701318,9.57766865 C20.7469047,8.91339306 19.8588357,8.49856618 18.8762368,8.49856618 C16.9889916,8.49856618 15.4593421,10.028413 15.4593421,11.9152635 Z" id="Imported-Layers" fill="#FFFFFF" sketch:type="MSShapeGroup"></path>
        </g>
    </g>
</svg>