<?xml version="1.0" encoding="utf-8"?>
<!-- Generator: Adobe Illustrator 15.0.0, SVG Export Plug-In . SVG Version: 6.00 Build 0)  -->
<!DOCTYPE svg PUBLIC "-//W3C//DTD SVG 1.1//EN" "http://www.w3.org/Graphics/SVG/1.1/DTD/svg11.dtd">
<svg version="1.1" id="Layer_1" xmlns="http://www.w3.org/2000/svg" xmlns:xlink="http://www.w3.org/1999/xlink" x="0px" y="0px"
	 width="64px" height="64px" viewBox="0 0 64 64" enable-background="new 0 0 64 64" xml:space="preserve">
<g id="Twitter">
	<g id="Square">
		<g>
			<linearGradient id="SVGID_1_" gradientUnits="userSpaceOnUse" x1="32.0005" y1="0.3335" x2="32.0005" y2="63.3754">
				<stop  offset="0" style="stop-color:#76B9E6"/>
				<stop  offset="1" style="stop-color:#2072B8"/>
			</linearGradient>
			<path fill="url(#SVGID_1_)" d="M10.5,64C4.71,64,0,59.29,0,53.5V10.5C0,4.711,4.71,0,10.5,0h43.002C59.29,0,64,4.711,64,10.5
				V53.5C64,59.29,59.29,64,53.502,64H10.5z"/>
		</g>
	</g>
	<path id="Bird" fill="#FFFFFF" d="M55.514,29.674c-1.75,0.297-4.286-0.013-5.633-0.573c2.793-0.23,4.686-1.5,5.416-3.225
		c-1.009,0.618-4.137,1.295-5.859,0.652c-0.089-0.408-0.184-0.793-0.275-1.144c-1.312-4.832-5.82-8.73-10.536-8.26
		c0.378-0.153,0.765-0.295,1.151-0.427c0.52-0.185,3.569-0.685,3.088-1.76c-0.406-0.946-4.13,0.715-4.83,0.934
		c0.926-0.348,2.455-0.945,2.62-2.012c-1.418,0.195-2.81,0.866-3.884,1.842c0.387-0.419,0.68-0.929,0.744-1.476
		c-3.785,2.419-5.994,7.293-7.781,12.025c-1.404-1.362-2.652-2.435-3.768-3.033c-3.133-1.677-6.876-3.431-12.755-5.617
		c-0.181,1.945,0.961,4.538,4.249,6.256c-0.708-0.097-2.013,0.118-3.055,0.368c0.425,2.233,1.811,4.07,5.567,4.957
		c-1.714,0.11-2.602,0.506-3.405,1.347c0.779,1.551,2.691,3.375,6.117,3.002c-3.815,1.646-1.555,4.695,1.553,4.243
		c-5.296,5.476-13.646,5.07-18.441,0.491c12.518,17.077,39.732,10.097,43.785-6.35C52.622,31.938,54.407,30.863,55.514,29.674z"/>
</g>
</svg>
