<?xml version="1.0" encoding="utf-8"?>
<!-- Generator: Adobe Illustrator 19.2.1, SVG Export Plug-In . SVG Version: 6.00 Build 0)  -->
<svg version="1.1" id="icon" xmlns="http://www.w3.org/2000/svg" xmlns:xlink="http://www.w3.org/1999/xlink" x="0px" y="0px"
	 viewBox="0 0 1024 1024" style="enable-background:new 0 0 1024 1024;" xml:space="preserve">
<path id="twitter" d="M417,720c193.2,0,298.9-160.1,298.9-298.9c0-4.5,0-9.1-0.3-13.6c20.6-14.9,38.3-33.3,52.4-54.4
	c-19.2,8.5-39.5,14.1-60.3,16.5c21.9-13.1,38.3-33.8,46.2-58.1c-20.6,12.2-43.2,20.9-66.7,25.5c-39.8-42.3-106.3-44.3-148.6-4.6
	c-27.3,25.7-38.9,63.9-30.4,100.4C423.7,428.6,345,388.7,291.7,323c-27.9,48-13.6,109.4,32.5,140.2c-16.7-0.5-33.1-5-47.7-13.1v1.3
	c0,50,35.3,93.1,84.3,103c-15.5,4.2-31.7,4.8-47.4,1.8c13.8,42.8,53.2,72.1,98.1,72.9c-37.2,29.2-83.1,45.1-130.5,45.1
	c-8.4,0-16.7-0.5-25-1.5C304,703.7,359.9,720,417,720"/>
</svg>
