<svg width="66" height="66" viewBox="0 0 66 66" xmlns="http://www.w3.org/2000/svg"><title>Slice 1</title><g transform="translate(1 1)" fill="none" fill-rule="evenodd"><circle fill="#6BACDE" cx="32" cy="32" r="32"/><path d="M32.98 25.42c0 .57.064 1.127.19 1.66-6.06-.303-11.43-3.205-15.026-7.616-.627 1.077-.986 2.33-.986 3.665 0 2.528 1.287 4.76 3.242 6.066-1.195-.038-2.318-.366-3.3-.91l-.002.09c0 3.532 2.513 6.478 5.847 7.147-.612.167-1.255.256-1.92.256-.47 0-.927-.047-1.372-.13.928 2.894 3.62 5.002 6.81 5.06-2.495 1.956-5.638 3.12-9.053 3.12-.588 0-1.17-.034-1.74-.1 3.227 2.067 7.058 3.274 11.175 3.274 13.407 0 20.74-11.107 20.74-20.74 0-.316-.008-.63-.022-.942 1.424-1.028 2.66-2.312 3.637-3.774-1.307.58-2.712.972-4.187 1.148 1.506-.902 2.66-2.33 3.205-4.033-1.408.836-2.968 1.442-4.628 1.77-1.33-1.418-3.224-2.303-5.32-2.303-4.027 0-7.29 3.264-7.29 7.29z" fill="#FFF"/></g></svg>