<?xml version="1.0" encoding="utf-8"?>
<!-- Generator: Adobe Illustrator 16.0.4, SVG Export Plug-In . SVG Version: 6.00 Build 0)  -->
<!DOCTYPE svg PUBLIC "-//W3C//DTD SVG 1.1//EN" "http://www.w3.org/Graphics/SVG/1.1/DTD/svg11.dtd">
<svg version="1.1" id="Layer_1" xmlns="http://www.w3.org/2000/svg" xmlns:xlink="http://www.w3.org/1999/xlink" x="0px" y="0px"
	 width="64px" height="64px" viewBox="0 0 64 64" enable-background="new 0 0 64 64" xml:space="preserve">
<g id="Square">
	<g>
		<path fill="#6BACDF" d="M10.5,64C4.71,64,0,59.29,0,53.5v-43C0,4.711,4.71,0,10.5,0h43.002C59.29,0,64,4.711,64,10.5v43
			C64,59.29,59.29,64,53.502,64H10.5z"/>
	</g>
</g>
<path fill="#FFFFFF" d="M53.527,18.647c-1.584,0.703-3.287,1.178-5.073,1.391c1.823-1.093,3.225-2.824,3.884-4.887
	c-1.707,1.012-3.598,1.747-5.609,2.143c-1.611-1.716-3.907-2.789-6.447-2.789c-4.879,0-8.833,3.955-8.833,8.833
	c0,0.692,0.078,1.366,0.229,2.013c-7.342-0.369-13.85-3.886-18.206-9.229c-0.761,1.305-1.196,2.822-1.196,4.44
	c0,3.065,1.56,5.769,3.93,7.352c-1.448-0.045-2.81-0.442-4.002-1.104c0,0.037,0,0.074,0,0.111c0,4.28,3.045,7.85,7.085,8.662
	c-0.741,0.201-1.521,0.31-2.327,0.31c-0.57,0-1.123-0.056-1.663-0.159c1.125,3.51,4.387,6.063,8.252,6.135
	c-3.023,2.369-6.833,3.781-10.97,3.781c-0.713,0-1.416-0.042-2.107-0.123c3.909,2.506,8.552,3.968,13.54,3.968
	c16.248,0,25.133-13.459,25.133-25.132c0-0.383-0.009-0.764-0.025-1.143C50.846,21.974,52.343,20.418,53.527,18.647z"/>
</svg>
