<svg width="66" height="66" viewBox="0 0 66 66" xmlns="http://www.w3.org/2000/svg"><title>Slice 1</title><g fill="none" fill-rule="evenodd"><path d="M33 64.578c17.673 0 32-14.106 32-31.507 0-17.4-14.327-31.507-32-31.507-17.673 0-32 14.107-32 31.508C1 50.473 15.327 64.58 33 64.58z" fill="#51C544"/><g fill="#FFF"><path d="M51.837 26.226c-2.693-9.09-11.523-14.633-21.14-13.274-8.782 1.242-15.758 9.054-15.938 17.782-.07 3.394.72 6.554 2.3 9.556.194.366.233.91.122 1.313-.313 1.152-.742 2.273-1.125 3.406l-1.998 5.897c3.367-1.06 6.525-2.044 9.67-3.062.55-.18.994-.135 1.508.113 3.704 1.78 7.592 2.35 11.67 1.67 10.99-1.83 18.045-12.882 14.93-23.402zM35.6 46.65c-3.602.404-6.948-.273-10.048-2.105-.408-.24-.75-.284-1.195-.135-1.532.51-3.077.986-4.618 1.472-.184.057-.374.093-.717.177.4-1.2.652-2.325 1.14-3.34.714-1.498.494-2.67-.327-4.166-4.345-7.898-.97-17.69 7.53-21.388 9.44-4.11 20.413 1.817 21.842 11.878C50.573 38.66 43.374 45.778 35.6 46.65z"/><path d="M43.05 35.872c-1.248-.708-2.54-1.34-3.817-1.998-.42-.216-.77-.126-1.074.234-.407.477-.854.923-1.246 1.41-.474.588-.98.645-1.658.31-2.175-1.074-3.965-2.56-5.314-4.563-.986-1.465-.998-1.455.13-2.82.16-.192.37-.38.434-.605.11-.387.266-.847.15-1.194-.43-1.275-.945-2.52-1.467-3.762-.095-.224-.342-.496-.56-.54-.987-.2-1.964-.247-2.75.576-1.252 1.31-1.83 2.84-1.598 4.64.244 1.893 1.272 3.433 2.3 4.98 2.487 3.747 5.848 6.364 10.212 7.688.646.197 1.322.295 1.985.44l.02-.072c.353-.033.708-.05 1.058-.104 2.068-.31 3.424-1.718 3.562-3.758.02-.286-.147-.734-.37-.862"/></g></g></svg>