<?xml version="1.0" encoding="UTF-8" standalone="no"?>
<svg width="30px" height="31px" viewBox="0 0 30 31" version="1.1" xmlns="http://www.w3.org/2000/svg" xmlns:xlink="http://www.w3.org/1999/xlink" xmlns:sketch="http://www.bohemiancoding.com/sketch/ns">
    <!-- Generator: Sketch 3.3.3 (12081) - http://www.bohemiancoding.com/sketch -->
    <title>Slice 1</title>
    <desc>Created with Sketch.</desc>
    <defs></defs>
    <g id="Page-1" stroke="none" stroke-width="1" fill="none" fill-rule="evenodd" sketch:type="MSPage">
        <g id="whatsapp" sketch:type="MSLayerGroup">
            <g id="Imported-Layers-Copy" fill="#51C544" sketch:type="MSShapeGroup">
                <path d="M15,30.7613636 C23.2842712,30.7613636 30,24.0456349 30,15.7613636 C30,7.47709239 23.2842712,0.761363636 15,0.761363636 C6.71572875,0.761363636 0,7.47709239 0,15.7613636 C0,24.0456349 6.71572875,30.7613636 15,30.7613636 Z" id="Oval-1-Copy-9"></path>
            </g>
            <g id="Imported-Layers" transform="translate(5.000000, 5.000000)" fill="#FFFFFF" sketch:type="MSShapeGroup">
                <path d="M19.114473,7.40957066 C17.8117016,2.93873522 13.5388085,0.210926602 8.88580694,0.879690816 C4.63633171,1.49077319 1.26071168,5.33351751 1.17394242,9.62736337 C1.14017143,11.2969321 1.52200548,12.8518767 2.2876456,14.3286797 C2.38107046,14.5086273 2.39980473,14.7758372 2.34631345,14.9742725 C2.19446725,15.5409843 1.98715773,16.0926593 1.80178704,16.6500039 C1.48996001,17.5862245 1.17813298,18.5224451 0.835,19.5515975 C2.46463517,19.0292564 3.99271086,18.5458629 5.51462397,18.0449676 C5.78084784,17.9572124 5.99555246,17.9789047 6.24427457,18.1004309 C8.0366021,18.9767512 9.91791743,19.2562862 11.8909321,18.9220274 C17.2087538,18.0213033 20.6223354,12.5849133 19.114473,7.40957066 L19.114473,7.40957066 Z M11.2579109,17.4573031 C9.51513058,17.655985 7.89634156,17.3229586 6.39636728,16.4214951 C6.19891791,16.3029268 6.03376051,16.2817275 5.81782337,16.3554321 C5.07658711,16.6068657 4.32918825,16.8405511 3.58351492,17.0794131 C3.49502014,17.1075145 3.4030743,17.1252628 3.23717739,17.1666754 C3.42994319,16.5762993 3.55245547,16.0231453 3.78786639,15.5234825 C4.13420392,14.7869298 4.02771437,14.2098649 3.6301041,13.4745448 C1.52792156,9.58890881 3.16150079,4.77247536 7.27416653,2.95253942 C11.8421244,0.931210064 17.1513185,3.84685441 17.8425145,8.7961533 C18.5028976,13.5268035 15.0195555,17.0281404 11.2579109,17.4573031 L11.2579109,17.4573031 Z" id="Fill-1"></path>
                <path d="M14.8625327,12.1552576 C14.259092,11.8067015 13.6342054,11.495121 13.0159744,11.1722013 C12.8123625,11.0659583 12.643754,11.1100824 12.4960984,11.287072 C12.2998815,11.5219899 12.0836979,11.7411316 11.8938901,11.9804866 C11.6643953,12.2701283 11.4193707,12.2982297 11.0917675,12.1335653 C10.0391972,11.6048151 9.17323011,10.8736855 8.52048863,9.88865717 C8.04301119,9.1678807 8.03758812,9.17281077 8.58384005,8.50182803 C8.66124217,8.40717065 8.76280165,8.3139923 8.79336809,8.2038052 C8.84636636,8.01325793 8.92179646,7.78721415 8.86534714,7.61638716 C8.65828413,6.98928206 8.4083295,6.37622765 8.15615634,5.76563828 C8.11055318,5.65545118 7.99099894,5.52184624 7.8850024,5.50015393 C7.40777147,5.4020455 6.9352241,5.37838116 6.55486908,5.78363304 C5.94896328,6.42848641 5.66868871,7.18032233 5.78158735,8.06600969 C5.89990907,8.99730022 6.39710679,9.75480572 6.89455101,10.5162553 C8.09798149,12.3591161 9.72416561,13.6468508 11.8359618,14.2981132 C12.1485283,14.3947426 12.4756386,14.4433038 12.7963397,14.5140504 C12.7997908,14.5022182 12.8032418,14.490386 12.8066929,14.4788003 C12.9772734,14.4625311 13.1490864,14.45415 13.3181878,14.4280206 C14.3192389,14.2749419 14.9751849,13.5827598 15.0417408,12.5792437 C15.051108,12.4384902 14.9709943,12.2178695 14.8625327,12.1552576" id="Fill-2"></path>
            </g>
        </g>
    </g>
</svg>