<?xml version="1.0" encoding="utf-8"?>
<!-- Generator: Adobe Illustrator 19.2.1, SVG Export Plug-In . SVG Version: 6.00 Build 0)  -->
<svg version="1.1" id="icon" xmlns="http://www.w3.org/2000/svg" xmlns:xlink="http://www.w3.org/1999/xlink" x="0px" y="0px"
	 viewBox="0 0 1024 1024" style="enable-background:new 0 0 1024 1024;" xml:space="preserve">
<path id="whatsapp" d="M756.7,436.8c-35.6-122-152.2-196.3-279.3-178.1c-116,16.7-208.2,121.5-210.6,238.6
	c-0.9,45.5,9.5,87.9,30.4,128.2c2.6,4.9,3.1,12.2,1.6,17.6c-4.1,15.4-9.8,30.5-14.9,45.7L257.6,768c44.5-14.2,86.2-27.4,127.8-41.1
	c7.3-2.4,13.1-1.8,19.9,1.5c48.9,23.9,100.3,31.5,154.2,22.4C704.6,726.3,797.8,578,756.7,436.8L756.7,436.8z M542.2,710.9
	c-47.6,5.4-91.8-3.7-132.7-28.3c-5.4-3.2-9.9-3.8-15.8-1.8c-20.2,6.8-40.7,13.2-61,19.7c-2.4,0.8-4.9,1.2-9.5,2.4
	c5.3-16.1,8.6-31.2,15.1-44.8c9.4-20.1,6.5-35.8-4.3-55.9c-57.4-106-12.8-237.4,99.5-287c124.7-55.1,269.7,24.4,288.6,159.4
	C740,603.7,644.9,699.2,542.2,710.9L542.2,710.9z M640.5,566.3c2.9,1.7,5.2,7.7,4.9,11.6c-1.8,27.4-19.7,46.3-47.1,50.4
	c-4.6,0.7-9.3,0.9-14,1.4l-0.3,1c-8.8-1.9-17.7-3.3-26.2-5.9c-57.5-17.8-101.9-53-134.8-103.2c-13.6-20.8-27.2-41.4-30.4-66.8
	c-3.1-24.2,4.6-44.7,21.1-62.3c10.4-11,23.3-10.4,36.3-7.7c2.9,0.6,6.1,4.2,7.4,7.2c6.9,16.7,13.7,33.4,19.4,50.5
	c1.5,4.7-0.5,10.8-2,16c-0.8,3-3.6,5.5-5.7,8.1c-14.9,18.3-14.7,18.2-1.7,37.8c17.8,26.9,41.5,46.8,70.2,61.2
	c9,4.5,15.7,3.7,21.9-4.2c5.2-6.5,11.1-12.5,16.5-18.9c4-4.8,8.6-6,14.2-3.1C607,548.3,624.1,556.8,640.5,566.3"/>
</svg>
