<?xml version="1.0" encoding="utf-8"?>
<!-- Generator: Adobe Illustrator 19.2.1, SVG Export Plug-In . SVG Version: 6.00 Build 0)  -->
<svg version="1.1" id="icon" xmlns="http://www.w3.org/2000/svg" xmlns:xlink="http://www.w3.org/1999/xlink" x="0px" y="0px"
	 viewBox="0 0 1024 1024" style="enable-background:new 0 0 1024 1024;" xml:space="preserve">
<path id="youtube" d="M762.9,409.6c0,0-5-35.3-20.4-50.8c-19.5-20.4-41.3-20.5-51.3-21.7c-71.6-5.2-179.1-5.2-179.1-5.2h-0.2
	c0,0-107.5,0-179.1,5.2c-10,1.2-31.8,1.3-51.3,21.7c-15.4,15.5-20.3,50.8-20.3,50.8s-5.1,41.4-5.1,82.9v38.8
	c0,41.4,5.1,82.9,5.1,82.9s5,35.3,20.3,50.8c19.5,20.4,45.1,19.7,56.5,21.9c41,3.9,174.1,5.1,174.1,5.1s107.6-0.2,179.2-5.3
	c10-1.2,31.8-1.3,51.3-21.7c15.4-15.5,20.4-50.8,20.4-50.8s5.1-41.4,5.1-82.9v-38.8C768,451.1,762.9,409.6,762.9,409.6L762.9,409.6z
	 M459.1,578.4V434.5l138.3,72.2L459.1,578.4L459.1,578.4z"/>
</svg>
