<?xml version="1.0" encoding="utf-8"?>
<!-- Generator: Adobe Illustrator 15.0.0, SVG Export Plug-In . SVG Version: 6.00 Build 0)  -->
<!DOCTYPE svg PUBLIC "-//W3C//DTD SVG 1.1//EN" "http://www.w3.org/Graphics/SVG/1.1/DTD/svg11.dtd">
<svg version="1.1" id="Layer_1" xmlns="http://www.w3.org/2000/svg" xmlns:xlink="http://www.w3.org/1999/xlink" x="0px" y="0px"
	 width="64.062px" height="64.062px" viewBox="0 0 64.062 64.062" enable-background="new 0 0 64.062 64.062" xml:space="preserve">
<path fill-rule="evenodd" clip-rule="evenodd" fill="#FFFFFF" d="M11.21,0h41.641c6.192,0,11.211,5.019,11.211,11.21v41.641
	c0,6.192-5.019,11.211-11.211,11.211H11.21C5.019,64.062,0,59.043,0,52.851V11.21C0,5.019,5.019,0,11.21,0z"/>
<path fill="#E62E2C" d="M54.493,37.286c0-3.46-2.84-6.267-6.34-6.267c-4.993-0.208-10.104-0.301-15.316-0.292
	c-5.211-0.009-10.322,0.083-15.316,0.292c-3.499,0-6.34,2.807-6.34,6.267c-0.21,2.739-0.302,5.479-0.293,8.22
	c-0.008,2.74,0.083,5.479,0.293,8.219c0,3.46,2.841,6.267,6.34,6.267c4.994,0.208,10.105,0.301,15.316,0.292
	c5.212,0.01,10.323-0.083,15.316-0.292c3.5,0,6.34-2.807,6.34-6.267c0.211-2.74,0.302-5.479,0.293-8.219
	C54.795,42.765,54.704,40.025,54.493,37.286z"/>
<g>
	<path fill="#010202" d="M15.209,4.603h3.729l2.405,9.587h0.231l2.292-9.587h3.765L23.32,18.635v9.953h-3.705v-9.504L15.209,4.603z"
		/>
	<path fill="#010202" d="M27.464,14.94c0-1.371,0.442-2.461,1.328-3.273c0.886-0.813,2.077-1.219,3.571-1.219
		c1.36,0,2.477,0.429,3.346,1.286c0.869,0.856,1.304,1.958,1.304,3.307v9.138c0,1.514-0.427,2.702-1.278,3.564
		c-0.854,0.862-2.026,1.293-3.521,1.293c-1.44,0-2.591-0.445-3.455-1.334c-0.863-0.889-1.295-2.086-1.295-3.589V14.94z
		 M30.85,24.443c0,0.487,0.116,0.862,0.351,1.128c0.234,0.265,0.569,0.397,1.005,0.397c0.445,0,0.799-0.135,1.062-0.406
		c0.261-0.271,0.392-0.644,0.392-1.119v-9.637c0-0.386-0.134-0.699-0.4-0.936c-0.269-0.238-0.62-0.357-1.054-0.357
		c-0.402,0-0.729,0.119-0.979,0.357c-0.251,0.237-0.376,0.55-0.376,0.936V24.443z"/>
	<path fill="#010202" d="M49.194,10.895v17.693h-3.288v-1.954c-0.608,0.72-1.238,1.268-1.895,1.645
		c-0.655,0.375-1.292,0.564-1.909,0.564c-0.76,0-1.334-0.263-1.72-0.79s-0.577-1.317-0.577-2.371V10.895h3.289v13.562
		c0,0.42,0.069,0.723,0.206,0.911c0.138,0.188,0.362,0.282,0.67,0.282c0.242,0,0.548-0.125,0.918-0.373
		c0.368-0.249,0.707-0.566,1.018-0.953v-13.43H49.194z"/>
</g>
<path fill="#FFFFFF" d="M23.608,35.592h-9.205v2.819h3.103v16.601h3V38.411h3.103V35.592z M28.511,51.56
	c-0.25,0.313-0.523,0.57-0.822,0.771c-0.3,0.201-0.547,0.302-0.744,0.302c-0.25,0-0.43-0.077-0.541-0.229
	c-0.111-0.151-0.168-0.397-0.168-0.737V40.687h-2.663V52.66c0,0.853,0.156,1.492,0.469,1.919s0.776,0.64,1.392,0.64
	c0.5,0,1.016-0.153,1.547-0.457c0.529-0.305,1.04-0.749,1.531-1.331v1.581h2.664V40.687h-2.664V51.56z M38.83,40.506
	c-0.413,0-0.821,0.113-1.225,0.341c-0.403,0.229-0.785,0.561-1.143,0.997v-6.251h-2.689v19.419h2.689v-1.101
	c0.35,0.437,0.729,0.759,1.136,0.968c0.408,0.209,0.873,0.314,1.394,0.314c0.789,0,1.392-0.27,1.809-0.811s0.627-1.32,0.627-2.338
	v-7.947c0-1.17-0.224-2.062-0.668-2.673C40.316,40.812,39.673,40.506,38.83,40.506z M38.686,51.654c0,0.457-0.076,0.786-0.229,0.987
	c-0.154,0.202-0.395,0.302-0.72,0.302c-0.226,0-0.439-0.051-0.645-0.154c-0.202-0.103-0.413-0.271-0.629-0.504v-8.927
	c0.18-0.197,0.363-0.342,0.549-0.437c0.185-0.094,0.374-0.141,0.563-0.141c0.359,0,0.637,0.126,0.825,0.376
	c0.19,0.25,0.285,0.618,0.285,1.101V51.654z M51.271,48.186v-3.647c0-1.359-0.326-2.402-0.981-3.126
	c-0.653-0.725-1.59-1.087-2.808-1.087c-1.191,0-2.164,0.392-2.916,1.174c-0.754,0.783-1.129,1.796-1.129,3.04v6.43
	c0,1.378,0.343,2.462,1.027,3.25c0.686,0.788,1.623,1.182,2.816,1.182c1.326,0,2.321-0.372,2.989-1.115
	c0.668-0.744,1.001-1.849,1.001-3.317v-1.076h-2.741v0.995c0,0.843-0.087,1.388-0.264,1.635c-0.175,0.246-0.484,0.37-0.926,0.37
	c-0.424,0-0.724-0.146-0.899-0.438c-0.176-0.291-0.263-0.814-0.263-1.567v-2.702H51.271z M46.178,44.511
	c0-0.599,0.092-1.029,0.275-1.289c0.186-0.26,0.489-0.39,0.914-0.39c0.405,0,0.7,0.13,0.886,0.39s0.276,0.689,0.276,1.289v1.45
	h-2.352V44.511z"/>
</svg>
