<svg width="66" height="66" viewBox="0 0 66 66" xmlns="http://www.w3.org/2000/svg"><title>Slice 1</title><g fill="none" fill-rule="evenodd"><path d="M33 65c17.673 0 32-14.327 32-32C65 15.327 50.673 1 33 1 15.327 1 1 15.327 1 33c0 17.673 14.327 32 32 32z" fill="#ED2828"/><path d="M30.375 37.72l-.002-10.226 9.835 5.132-9.833 5.095zm21.593-11.997s-.356-2.51-1.447-3.613c-1.383-1.45-2.935-1.457-3.646-1.542C41.78 20.2 34.14 20.2 34.14 20.2h-.016s-7.64 0-12.733.368c-.71.085-2.262.092-3.646 1.542-1.092 1.104-1.447 3.613-1.447 3.613s-.364 2.945-.364 5.89v2.762c0 2.945.364 5.89.364 5.89s.355 2.51 1.447 3.614c1.384 1.448 3.203 1.402 4.013 1.554 2.912.28 12.375.366 12.375.366s7.648-.012 12.742-.38c.71-.085 2.263-.092 3.647-1.54 1.092-1.106 1.448-3.614 1.448-3.614s.363-2.946.363-5.89v-2.762c0-2.946-.362-5.89-.362-5.89z" fill="#FFF"/></g></svg>