<?xml version="1.0" encoding="UTF-8" standalone="no"?>
<svg width="30px" height="30px" viewBox="0 0 30 30" version="1.1" xmlns="http://www.w3.org/2000/svg" xmlns:xlink="http://www.w3.org/1999/xlink" xmlns:sketch="http://www.bohemiancoding.com/sketch/ns">
    <!-- Generator: Sketch 3.3.3 (12081) - http://www.bohemiancoding.com/sketch -->
    <title>Slice 1</title>
    <desc>Created with Sketch.</desc>
    <defs></defs>
    <g id="Page-1" stroke="none" stroke-width="1" fill="none" fill-rule="evenodd" sketch:type="MSPage">
        <g id="you-tube" sketch:type="MSLayerGroup">
            <path d="M15,30 C23.2842712,30 30,23.2842712 30,15 C30,6.71572875 23.2842712,0 15,0 C6.71572875,0 0,6.71572875 0,15 C0,23.2842712 6.71572875,30 15,30 Z" id="Oval-1-Copy-8" fill="#ED2828" sketch:type="MSShapeGroup"></path>
            <g id="Imported-Layers" transform="translate(6.000000, 3.000000)" sketch:type="MSShapeGroup">
                <path d="M17.6824,13.4202982 C17.6824,12.0241579 16.5464,10.8915088 15.1464,10.8915088 C13.1492,10.8071754 11.1048,10.7700526 9.02,10.7736842 C6.9356,10.7700526 4.8912,10.8071754 2.8932,10.8915088 C1.4936,10.8915088 0.3576,12.0241579 0.3576,13.4202982 C0.2736,14.5255088 0.2368,15.6311228 0.2404,16.7371404 C0.2372,17.8427544 0.2736,18.9479649 0.3576,20.0531754 C0.3576,21.4497193 1.4936,22.5823684 2.8932,22.5823684 C4.8912,22.6662982 6.9356,22.7038246 9.02,22.6997895 C11.1048,22.7038246 13.1492,22.6662982 15.1464,22.5823684 C16.5464,22.5823684 17.6824,21.4497193 17.6824,20.0531754 C17.7668,18.9479649 17.8032,17.8427544 17.7996,16.7371404 C17.8032,15.6311228 17.7668,14.5255088 17.6824,13.4202982" id="Fill-1" fill="#FFFFFF"></path>
                <path d="M1.9688,0.232421053 L3.4604,0.232421053 L4.4228,4.10085965 L4.5152,4.10085965 L5.432,0.232421053 L6.938,0.232421053 L5.2132,5.89445614 L5.2132,9.91057895 L3.7312,9.91057895 L3.7312,6.07563158 L1.9688,0.232421053" id="Fill-2" fill="#FFFFFF"></path>
                <path d="M6.8708,4.40349123 C6.8708,3.85068421 7.0476,3.41005263 7.402,3.08280702 C7.7564,2.75435088 8.2328,2.59052632 8.8304,2.59052632 C9.3748,2.59052632 9.8212,2.76403509 10.1688,3.1094386 C10.5164,3.45484211 10.6904,3.89950877 10.6904,4.44384211 L10.6904,8.13070175 C10.6904,8.74201754 10.5196,9.22138596 10.1788,9.56921053 C9.8376,9.91703509 9.3684,10.0909474 8.7708,10.0909474 C8.1944,10.0909474 7.7344,9.91138596 7.3888,9.55266667 C7.0432,9.19354386 6.8708,8.71094737 6.8708,8.10407018 L6.8708,4.40349123 L6.8708,4.40349123 Z M8.2252,8.23803509 C8.2252,8.43454386 8.2716,8.58626316 8.3652,8.69359649 C8.4592,8.80052632 8.5928,8.85338596 8.7672,8.85338596 C8.9452,8.85338596 9.0868,8.79931579 9.1924,8.6895614 C9.2964,8.58061404 9.3488,8.43050877 9.3488,8.23803509 L9.3488,4.34942105 C9.3488,4.19407018 9.2952,4.06777193 9.1888,3.97214035 C9.0812,3.87610526 8.9408,3.82768421 8.7672,3.82768421 C8.6064,3.82768421 8.476,3.87610526 8.3752,3.97214035 C8.2752,4.06777193 8.2252,4.19407018 8.2252,4.34942105 L8.2252,8.23803509 L8.2252,8.23803509 Z" id="Fill-3" fill="#FFFFFF"></path>
                <path d="M15.5628,2.77129825 L15.5628,9.91057895 L14.2476,9.91057895 L14.2476,9.12212281 C14.0044,9.41264912 13.7524,9.63377193 13.49,9.78589474 C13.2276,9.93721053 12.9732,10.0134737 12.726,10.0134737 C12.4224,10.0134737 12.1924,9.90735088 12.0384,9.69470175 C11.884,9.48245614 11.8076,9.1632807 11.8076,8.73838596 L11.8076,2.77129825 L13.1232,2.77129825 L13.1232,8.24368421 C13.1232,8.4135614 13.1508,8.53542105 13.2056,8.61168421 C13.2604,8.68714035 13.3504,8.72507018 13.4736,8.72507018 C13.5704,8.72507018 13.6924,8.67463158 13.8408,8.5745614 C13.988,8.47449123 14.1236,8.34657895 14.2476,8.19042105 L14.2476,2.77129825 L15.5628,2.77129825" id="Fill-4" fill="#FFFFFF"></path>
                <path d="M5.3284,12.7367544 L1.6464,12.7367544 L1.6464,13.8746491 L2.8876,13.8746491 L2.8876,20.5724912 L4.0876,20.5724912 L4.0876,13.8746491 L5.3284,13.8746491 L5.3284,12.7367544 L5.3284,12.7367544 Z M7.2896,19.1799825 C7.1896,19.3062807 7.08,19.410386 6.9604,19.4914912 C6.8408,19.5725965 6.7416,19.6129474 6.6628,19.6129474 C6.5628,19.6129474 6.4908,19.5818772 6.4464,19.5209474 C6.402,19.4600175 6.3792,19.3607544 6.3792,19.2235614 L6.3792,14.7926316 L5.314,14.7926316 L5.314,19.6238421 C5.314,19.9680351 5.3764,20.2258772 5.5016,20.3985789 C5.6264,20.5700702 5.812,20.6560175 6.0584,20.6560175 C6.2584,20.6560175 6.4644,20.5946842 6.6768,20.471614 C6.8888,20.3489474 7.0928,20.1697895 7.2896,19.9349474 L7.2896,20.5724912 L8.3552,20.5724912 L8.3552,14.7926316 L7.2896,14.7926316 L7.2896,19.1799825 L7.2896,19.1799825 Z M11.4172,14.7195965 C11.252,14.7195965 11.0888,14.765193 10.9272,14.857193 C10.766,14.9495965 10.6132,15.0835614 10.4704,15.2590877 L10.4704,12.7367544 L9.3944,12.7367544 L9.3944,20.5724912 L10.4704,20.5724912 L10.4704,20.1286316 C10.61,20.3045614 10.7616,20.4348947 10.9248,20.5192281 C11.088,20.6031579 11.274,20.6459298 11.482,20.6459298 C11.7976,20.6459298 12.0388,20.5369825 12.2056,20.3190877 C12.3724,20.1007895 12.4564,19.7860526 12.4564,19.3756842 L12.4564,16.1685965 C12.4564,15.6964912 12.3668,15.3365614 12.1892,15.089614 C12.0116,14.8430702 11.7544,14.7195965 11.4172,14.7195965 L11.4172,14.7195965 Z M11.3592,19.2179123 C11.3592,19.4023158 11.3288,19.5354737 11.2676,19.6161754 C11.206,19.6976842 11.1096,19.7380351 10.9796,19.7380351 C10.8896,19.7380351 10.804,19.7174561 10.722,19.6758947 C10.6412,19.6347368 10.5568,19.5669474 10.4704,19.4725263 L10.4704,15.870807 C10.5424,15.7913158 10.6156,15.7324035 10.69,15.6940702 C10.7636,15.6565439 10.8396,15.6375789 10.9152,15.6375789 C11.0592,15.6375789 11.17,15.6884211 11.2452,15.7897018 C11.3216,15.8905789 11.3592,16.0386667 11.3592,16.2335614 L11.3592,19.2179123 L11.3592,19.2179123 Z M16.3932,17.8181404 L16.3932,16.3469474 C16.3932,15.7981754 16.2628,15.3773158 16.0008,15.0851754 C15.7396,14.7926316 15.3648,14.6465614 14.8776,14.6465614 C14.4012,14.6465614 14.012,14.8047368 13.7112,15.1202807 C13.4096,15.4362281 13.2596,15.8449825 13.2596,16.3469474 L13.2596,18.9411053 C13.2596,19.4975439 13.3968,19.9345439 13.6708,20.2525088 C13.9448,20.5700702 14.32,20.7294561 14.7972,20.7294561 C15.3276,20.7294561 15.726,20.5793509 15.9928,20.2795439 C16.26,19.9797368 16.3932,19.5334561 16.3932,18.9411053 L16.3932,18.5069298 L15.2968,18.5069298 L15.2968,18.9084211 C15.2968,19.2485789 15.262,19.4684912 15.1916,19.5681579 C15.1216,19.6674211 14.9976,19.7174561 14.8212,19.7174561 C14.6516,19.7174561 14.5316,19.6589474 14.4612,19.5411228 C14.3912,19.4237018 14.3564,19.2122632 14.3564,18.9084211 L14.3564,17.8181404 L16.3932,17.8181404 L16.3932,17.8181404 Z M14.3564,16.3356491 C14.3564,16.0939474 14.3928,15.9204386 14.4664,15.8155263 C14.5408,15.710614 14.662,15.6589649 14.832,15.6589649 C14.994,15.6589649 15.112,15.710614 15.1864,15.8155263 C15.2604,15.9204386 15.2968,16.0939474 15.2968,16.3356491 L15.2968,16.9211404 L14.3564,16.9211404 L14.3564,16.3356491 L14.3564,16.3356491 Z" id="Fill-5" fill="#060606"></path>
            </g>
        </g>
    </g>
</svg>